<svg width="949" height="1150" xmlns="http://www.w3.org/2000/svg" xmlns:xlink="http://www.w3.org/1999/xlink"><defs><path d="M555.37 3c-15.278 2.084-145.877 21.832-208 125-68.275 113.382 6.531 227.252-63 283-24.412 19.572-49.325 18.119-77.475 16.665-31.024-1.602-65.979-3.204-108.525 23.335-75.418 47.043-92.951 131.522-94 137-2.388 12.472-12.368 71.022 18 130 55.945 108.658 199.071 122.134 210 123 84.589 6.707 110.347-30.138 326-113 155.64-59.803 151.227-44.069 191-71 101.253-68.559 231.706-239.482 169-423C871.699 97.414 733.918.341 594.833.341c-13.168 0-26.348.87-39.463 2.659" id="a"/><linearGradient x1="45.867%" y1="58.727%" x2="46.814%" y2="10.395%" id="b"><stop stop-color="#4949E7" offset="0%"/><stop stop-color="#5EB2FC" offset="100%"/></linearGradient><path d="M391.37 3c-.909.124-2.227.311-3.915.574A760.452 760.452 0 0 0 375.37 14c-42 37-70.054 124.995-76 187-7 73-327.368 376.022-297 435 55.945 108.657 199.071 122.133 210 123 84.589 6.707 110.347-30.139 326-113 48.723-18.721 81.763-30.041 105.382-37.583C728.642 524.109 805.357 383.22 754.37 234 707.699 97.414 569.918.341 430.833.341c-13.168 0-26.348.87-39.463 2.659" id="d"/><linearGradient x1="53.833%" y1="45.735%" x2="50%" y2="-.287%" id="e"><stop stop-color="#2C8CF4" offset="0%"/><stop stop-color="#B3B3FC" offset="100%"/></linearGradient><path d="M578.37 10c-146 31-182 194-235 244-30.324 28.606-71.248 28.507-115.842 28.408-49.357-.111-103.211-.222-152.158 38.592-64.002 50.752-92.166 154.619-64 227 55.541 142.732 319.49 135.715 384 134 66.355-1.764 419.044 2.881 511-250 35-96.25 37.154-242.36-50-337C814.258 49.271 759.981.774 659.672.772 635.421.771 608.483 3.606 578.37 10" id="g"/><linearGradient x1="38.457%" y1="78.557%" x2="92.942%" y2="-8.337%" id="h"><stop stop-color="#113255" offset="0%"/><stop stop-color="#2D2DB0" offset="100%"/></linearGradient><path d="M343.37 191c-30.324 28.606-71.248 28.507-115.842 28.408-49.357-.111-103.211-.222-152.158 38.592-64.002 50.752-92.166 154.619-64 227 30.933 79.494 126.523 112.538 216.289 125.917-7.506-41.13-12.04-80.166-4.289-111.917 31-127 139-134 220-206 98.961-87.966 4.457-171.019 33.743-292.732C410.379 62.003 381.212 155.301 343.37 191" id="j"/><linearGradient x1="-.657%" y1="102.016%" x2="90.835%" y2="-112.933%" id="k"><stop stop-color="#08192B" offset="0%"/><stop stop-color="#202095" offset="100%"/></linearGradient><linearGradient x1="-5.388%" y1="-27.207%" x2="140.664%" y2="62.34%" id="m"><stop stop-color="#0E2A47" offset="0%"/><stop stop-color="#3636CC" offset="100%"/></linearGradient><path d="M.622 24.483c-.87 10.578 6.555 19.321 15.36 24.15 5.179 2.84 11.046 4.717 16.939 4.313 7.069-.485 13.759-4.356 18.003-10.031 4.244-5.673 6.066-13.024 5.338-20.072C54.656 7.272 42.427.026 29.833.025 16.095.024 1.923 8.645.622 24.483" id="n"/></defs><g fill="none" fill-rule="evenodd"><g transform="translate(14 307.5)"><mask id="c" fill="#fff"><use xlink:href="#a"/></mask><path d="M555.37 3c-15.278 2.084-145.877 21.832-208 125-68.275 113.382 6.531 227.252-63 283-24.412 19.572-49.325 18.119-77.475 16.665-31.024-1.602-65.979-3.204-108.525 23.335-75.418 47.043-92.951 131.522-94 137-2.388 12.472-12.368 71.022 18 130 55.945 108.658 199.071 122.134 210 123 84.589 6.707 110.347-30.138 326-113 155.64-59.803 151.227-44.069 191-71 101.253-68.559 231.706-239.482 169-423C871.699 97.414 733.918.341 594.833.341c-13.168 0-26.348.87-39.463 2.659" fill="url(#b)" mask="url(#c)"/></g><g transform="translate(178 307.5)"><mask id="f" fill="#fff"><use xlink:href="#d"/></mask><path d="M387.455 3.574A760.452 760.452 0 0 0 375.37 14c-42 37-70.054 124.995-76 187-2.54 26.488-31.22 102.565-84.55 166.974C121.175 481.076-16.979 598.422 2.37 636c55.945 108.657 199.071 122.133 210 123 84.589 6.707 110.347-30.139 326-113 48.723-18.721 81.763-30.041 105.382-37.583C728.642 524.109 805.357 383.22 754.37 234 707.699 97.414 569.918.341 430.833.341c-13.168 0-26.348.87-39.463 2.659-.909.124-2.227.311-3.915.574z" fill="url(#e)" mask="url(#f)"/></g><g transform="translate(0 445.5)"><mask id="i" fill="#fff"><use xlink:href="#g"/></mask><path d="M578.37 10c-146 31-182 194-235 244-30.324 28.606-71.248 28.507-115.842 28.408-49.357-.111-103.211-.222-152.158 38.592-64.002 50.752-92.166 154.619-64 227 55.541 142.732 319.49 135.715 384 134 66.355-1.764 419.044 2.881 511-250 35-96.25 37.154-242.36-50-337C814.258 49.271 759.981.774 659.672.772 635.421.771 608.483 3.606 578.37 10" fill="url(#h)" mask="url(#i)"/></g><g transform="translate(0 508.5)"><mask id="l" fill="#fff"><use xlink:href="#j"/></mask><path d="M343.37 191c-30.324 28.606-71.248 28.507-115.842 28.408-49.357-.111-103.211-.222-152.158 38.592-64.002 50.752-92.166 154.619-64 227 30.933 79.494 126.523 112.538 216.289 125.917-7.506-41.13-12.04-80.166-4.289-111.917 31-127 139-134 220-206 98.961-87.966 4.457-171.019 33.743-292.732C410.379 62.003 381.212 155.301 343.37 191" fill="url(#k)" mask="url(#l)"/></g><path d="M1.37 85c-7.151 60.364 51.972 117.583 112 108 49.439-7.893 87.934-59.254 79-112-7.237-42.722-43.975-76.811-88-80a92.979 92.979 0 0 0-6.715-.243C48.646.755 6.75 39.586 1.37 85" fill="url(#m)" transform="translate(470 -.5)"/><g fill="#B7ECFF"><path d="M580.9 65.287c-.249.923-1.565 1.057-2.346 1.13-.951.091-1.908.12-2.863.117-.866-.003-1.772.037-2.627-.125-.148-.029-1.633-.403-1.596-.54.252-.932 1.645-.997 2.42-1.105 1.253-.176 2.526-.131 3.787-.138.541-.003 1.094.02 1.626.12.15.03 1.635.404 1.6.54"/><path d="M575.89 60.865c.924.25 1.057 1.565 1.131 2.346.091.952.12 1.908.117 2.863-.004.866.036 1.773-.126 2.626-.028.15-.403 1.633-.54 1.597-.932-.251-.996-1.645-1.105-2.42-.175-1.253-.131-2.526-.138-3.787-.003-.541.02-1.093.122-1.626.027-.15.403-1.635.539-1.599"/></g><g fill="#B7ECFF"><path d="M538.546 69.538c-.199.739-1.252.845-1.877.904-.76.073-1.526.096-2.29.094-.693-.002-1.418.03-2.102-.1-.118-.023-1.306-.323-1.276-.432.2-.746 1.316-.798 1.936-.885 1.002-.14 2.02-.104 3.03-.11.432-.002.874.016 1.3.097.12.023 1.308.323 1.28.432"/><path d="M534.538 66c.74.2.846 1.253.905 1.877.073.762.096 1.527.093 2.29-.002.694.03 1.419-.1 2.102-.023.12-.323 1.306-.432 1.277-.746-.2-.797-1.316-.884-1.936-.14-1.002-.105-2.02-.11-3.03a6.768 6.768 0 0 1 .097-1.3c.022-.12.322-1.308.431-1.28"/></g><g><path d="M557.73 789.613c-.324 1.201-2.035 1.374-3.05 1.471-1.237.118-2.48.155-3.722.151-1.126-.004-2.304.048-3.415-.163-.193-.037-2.123-.524-2.075-.7.327-1.214 2.14-1.297 3.147-1.439 1.628-.227 3.283-.17 4.922-.179.704-.004 1.422.026 2.114.158.194.036 2.126.524 2.08.701" fill="#B7ECFF"/><path d="M551.217 783.865c1.2.323 1.374 2.035 1.47 3.05.119 1.236.156 2.48.152 3.721-.004 1.126.048 2.305-.163 3.416-.037.193-.524 2.122-.701 2.075-1.213-.327-1.296-2.14-1.438-3.147-.227-1.628-.17-3.283-.18-4.922-.003-.704.027-1.422.159-2.115.036-.194.524-2.126.7-2.078M723.73 818.738c-.218.81-1.37.926-2.055.99-.834.08-1.67.106-2.508.103-.758-.003-1.552.032-2.3-.11-.13-.025-1.43-.353-1.399-.472.22-.818 1.442-.874 2.12-.969 1.097-.153 2.212-.115 3.317-.12.474-.004.958.016 1.425.105.13.025 1.432.354 1.4.473" fill="#B7ECFF"/><path d="M719.342 814.865c.809.218.926 1.371.99 2.055.08.833.106 1.671.103 2.507-.003.76.032 1.553-.111 2.301-.024.131-.352 1.431-.471 1.4-.818-.222-.874-1.443-.97-2.12-.152-1.098-.114-2.213-.12-3.318a7.394 7.394 0 0 1 .106-1.425c.025-.13.354-1.432.473-1.4M405.598 1032.25c-.21.784-1.327.896-1.989.96-.807.077-1.618.101-2.428.099-.735-.003-1.504.031-2.228-.107-.126-.024-1.384-.342-1.354-.457.214-.792 1.395-.846 2.053-.938 1.062-.149 2.142-.111 3.211-.118a7.33 7.33 0 0 1 1.38.104c.126.023 1.386.342 1.355.457" fill="#B7ECFF"/><path d="M401.35 1028.501c.782.211.895 1.327.958 1.989.077.807.102 1.618.1 2.428-.003.735.031 1.503-.107 2.228-.024.126-.343 1.384-.457 1.353-.792-.213-.847-1.394-.938-2.052-.149-1.062-.11-2.142-.118-3.211a7.33 7.33 0 0 1 .104-1.38c.023-.126.342-1.386.457-1.355M585.598 935.25c-.21.784-1.327.896-1.989.96-.807.077-1.618.101-2.428.099-.735-.003-1.504.031-2.228-.107-.126-.024-1.384-.342-1.354-.457.214-.792 1.395-.846 2.053-.938 1.062-.149 2.142-.111 3.211-.118a7.33 7.33 0 0 1 1.38.104c.126.023 1.386.342 1.355.457" fill="#B7ECFF"/><path d="M581.35 931.501c.782.211.895 1.327.958 1.989.077.807.102 1.618.1 2.428-.003.735.031 1.503-.107 2.228-.024.126-.343 1.384-.457 1.353-.792-.213-.847-1.394-.938-2.052-.149-1.062-.11-2.142-.118-3.211a7.33 7.33 0 0 1 .104-1.38c.023-.126.342-1.386.457-1.355M637.598 1003.25c-.21.784-1.327.896-1.989.96-.807.077-1.618.101-2.428.099-.735-.003-1.504.031-2.228-.107-.126-.024-1.384-.342-1.354-.457.214-.792 1.395-.846 2.053-.938 1.062-.149 2.142-.111 3.211-.118a7.33 7.33 0 0 1 1.38.104c.126.023 1.386.342 1.355.457" fill="#B7ECFF"/><path d="M633.35 999.501c.782.211.895 1.327.958 1.989.077.807.102 1.618.1 2.428-.003.735.031 1.503-.107 2.228-.024.126-.343 1.384-.457 1.353-.792-.213-.847-1.394-.938-2.052-.149-1.062-.11-2.142-.118-3.211a7.33 7.33 0 0 1 .104-1.38c.023-.126.342-1.386.457-1.355" fill="#B7ECFF"/><path d="M455.37 917a1.5 1.5 0 1 1-3.001-.001 1.5 1.5 0 0 1 3 .001M488.37 1038a1.5 1.5 0 1 1-3.001-.001 1.5 1.5 0 0 1 3 .001" fill="#71CEFC"/><path d="M475.6 1094.375c-.107.392-.665.448-.996.479-.403.04-.809.051-1.214.05-.367-.001-.752.016-1.114-.053-.063-.012-.693-.171-.677-.229.106-.395.698-.423 1.026-.469.532-.074 1.072-.055 1.606-.058.23-.001.464.009.69.051.063.012.693.171.678.229" fill="#B7ECFF"/><path d="M473.474 1092.5c.392.105.448.664.48.995.04.403.05.809.05 1.214-.002.367.015.752-.054 1.114-.012.063-.17.693-.229.677-.395-.106-.423-.698-.469-1.026-.074-.532-.055-1.072-.058-1.606a3.71 3.71 0 0 1 .051-.69c.012-.063.171-.694.23-.678M698.6 878.375c-.107.392-.665.448-.996.479-.403.04-.809.051-1.214.05-.367-.001-.752.016-1.114-.053-.063-.012-.693-.171-.677-.229.106-.395.698-.423 1.026-.469.532-.074 1.072-.055 1.606-.058.23-.001.464.009.69.051.063.012.693.171.678.229" fill="#B7ECFF"/><path d="M696.474 876.5c.392.105.448.664.48.995.04.403.05.809.05 1.214-.002.367.015.752-.054 1.114-.012.063-.17.693-.229.677-.395-.106-.423-.698-.469-1.026-.074-.532-.055-1.072-.058-1.606a3.71 3.71 0 0 1 .051-.69c.012-.063.171-.694.23-.678M747.6 767.375c-.107.392-.665.448-.996.479-.403.04-.809.051-1.214.05-.367-.001-.752.016-1.114-.053-.063-.012-.693-.171-.677-.229.106-.395.698-.423 1.026-.469.532-.074 1.072-.055 1.606-.058.23-.001.464.009.69.051.063.012.693.171.678.229" fill="#B7ECFF"/><path d="M745.474 765.5c.392.105.448.664.48.995.04.403.05.809.05 1.214-.002.367.015.752-.054 1.114-.012.063-.17.693-.229.677-.395-.106-.423-.698-.469-1.026-.074-.532-.055-1.072-.058-1.606a3.71 3.71 0 0 1 .051-.69c.012-.063.171-.694.23-.678M579.6 800.375c-.107.392-.665.448-.996.479-.403.04-.809.051-1.214.05-.367-.001-.752.016-1.114-.053-.063-.012-.693-.171-.677-.229.106-.395.698-.423 1.026-.469.532-.074 1.072-.055 1.606-.058.23-.001.464.009.69.051.063.012.693.171.678.229" fill="#B7ECFF"/><path d="M577.474 798.5c.392.105.448.664.48.995.04.403.05.809.05 1.214-.002.367.015.752-.054 1.114-.012.063-.17.693-.229.677-.395-.106-.423-.698-.469-1.026-.074-.532-.055-1.072-.058-1.606a3.71 3.71 0 0 1 .051-.69c.012-.063.171-.694.23-.678" fill="#B7ECFF"/><path d="M613.87 839a1 1 0 1 1-2 0 1 1 0 1 1 2 0" fill="#00B3FF"/><path d="M815.37 840.5a1 1 0 1 1-2 0 1 1 0 1 1 2 0M524.37 828.5a1 1 0 1 1-2 0 1 1 0 1 1 2 0" fill="#71CEFC"/><path d="M99.73 789.613c-.324 1.201-2.035 1.374-3.05 1.471-1.237.118-2.48.155-3.722.151-1.126-.004-2.304.048-3.415-.163-.193-.037-2.123-.524-2.075-.7.327-1.214 2.14-1.297 3.147-1.439 1.628-.227 3.283-.17 4.922-.179.704-.004 1.422.026 2.114.158.194.036 2.126.524 2.08.701" fill="#B7ECFF"/><path d="M93.217 783.865c1.2.323 1.374 2.035 1.47 3.05.119 1.236.156 2.48.152 3.721-.004 1.126.048 2.305-.163 3.416-.037.193-.524 2.122-.701 2.075-1.213-.327-1.296-2.14-1.438-3.147-.227-1.628-.17-3.283-.18-4.922-.003-.704.027-1.422.159-2.115.036-.194.524-2.126.7-2.078" fill="#B7ECFF"/><g fill="#B7ECFF"><path d="M593.73 486.613c-.324 1.201-2.035 1.374-3.05 1.47-1.237.118-2.48.156-3.722.152-1.126-.004-2.304.048-3.415-.163-.193-.037-2.123-.524-2.075-.7.327-1.214 2.14-1.298 3.147-1.439 1.628-.228 3.283-.17 4.922-.179.704-.004 1.422.026 2.114.157.194.037 2.126.525 2.08.702"/><path d="M587.217 480.865c1.2.324 1.374 2.035 1.47 3.05.119 1.237.156 2.48.152 3.722-.004 1.126.048 2.304-.163 3.414-.037.194-.524 2.123-.701 2.075-1.213-.326-1.296-2.138-1.438-3.146-.227-1.628-.17-3.283-.18-4.922-.003-.704.027-1.422.159-2.114.036-.195.524-2.126.7-2.079"/></g><path d="M247.598 812.25c-.21.784-1.327.896-1.989.96-.807.077-1.618.101-2.428.099-.735-.003-1.504.031-2.228-.107-.126-.024-1.384-.342-1.354-.457.214-.792 1.395-.846 2.053-.938 1.062-.149 2.142-.111 3.211-.118a7.33 7.33 0 0 1 1.38.104c.126.023 1.386.342 1.355.457" fill="#B7ECFF"/><path d="M243.35 808.501c.782.211.895 1.327.958 1.989.077.807.102 1.618.1 2.428-.003.735.031 1.503-.107 2.228-.024.126-.343 1.384-.457 1.353-.792-.213-.847-1.394-.938-2.052-.149-1.062-.11-2.142-.118-3.211a7.33 7.33 0 0 1 .104-1.38c.023-.126.342-1.386.457-1.355M751.598 691.25c-.21.784-1.327.896-1.989.96-.807.077-1.618.101-2.428.099-.735-.003-1.504.031-2.228-.107-.126-.024-1.384-.342-1.354-.457.214-.792 1.395-.846 2.053-.938 1.062-.149 2.142-.111 3.211-.118a7.33 7.33 0 0 1 1.38.104c.126.023 1.386.342 1.355.457" fill="#B7ECFF"/><path d="M747.35 687.501c.782.211.895 1.327.958 1.989.077.807.102 1.618.1 2.428-.003.735.031 1.503-.107 2.228-.024.126-.343 1.384-.457 1.353-.792-.213-.847-1.394-.938-2.052-.149-1.062-.11-2.142-.118-3.211a7.33 7.33 0 0 1 .104-1.38c.023-.126.342-1.386.457-1.355M334.598 1032.25c-.21.784-1.327.896-1.989.96-.807.077-1.618.101-2.428.099-.735-.003-1.504.031-2.228-.107-.126-.024-1.384-.342-1.354-.457.214-.792 1.395-.846 2.053-.938 1.062-.149 2.142-.111 3.211-.118a7.33 7.33 0 0 1 1.38.104c.126.023 1.386.342 1.355.457" fill="#B7ECFF"/><path d="M330.35 1028.501c.782.211.895 1.327.958 1.989.077.807.102 1.618.1 2.428-.003.735.031 1.503-.107 2.228-.024.126-.343 1.384-.457 1.353-.792-.213-.847-1.394-.938-2.052-.149-1.062-.11-2.142-.118-3.211a7.33 7.33 0 0 1 .104-1.38c.023-.126.342-1.386.457-1.355" fill="#B7ECFF"/><path d="M346.37 826a1.5 1.5 0 1 1-3.001-.001 1.5 1.5 0 0 1 3 .001" fill="#71CEFC"/><path d="M317.6 874.375c-.107.392-.665.448-.996.479-.403.04-.809.051-1.214.05-.367-.001-.752.016-1.114-.053-.063-.012-.693-.171-.677-.229.106-.395.698-.423 1.026-.469.532-.074 1.072-.055 1.606-.058.23-.001.464.009.69.051.063.012.693.171.678.229" fill="#B7ECFF"/><path d="M315.474 872.5c.392.105.448.664.48.995.04.403.05.809.05 1.214-.002.367.015.752-.054 1.114-.012.063-.17.693-.229.677-.395-.106-.423-.698-.469-1.026-.074-.532-.055-1.072-.058-1.606a3.71 3.71 0 0 1 .051-.69c.012-.063.171-.694.23-.678M255.6 960.375c-.107.392-.665.448-.996.479-.403.04-.809.051-1.214.05-.367-.001-.752.016-1.114-.053-.063-.012-.693-.171-.677-.229.106-.395.698-.423 1.026-.469.532-.074 1.072-.055 1.606-.058.23-.001.464.009.69.051.063.012.693.171.678.229" fill="#B7ECFF"/><path d="M253.474 958.5c.392.105.448.664.48.995.04.403.05.809.05 1.214-.002.367.015.752-.054 1.114-.012.063-.17.693-.229.677-.395-.106-.423-.698-.469-1.026-.074-.532-.055-1.072-.058-1.606a3.71 3.71 0 0 1 .051-.69c.012-.063.171-.694.23-.678M767.6 598.375c-.107.392-.665.448-.996.479-.403.04-.809.051-1.214.05-.367-.001-.752.016-1.114-.053-.063-.012-.693-.171-.677-.229.106-.395.698-.423 1.026-.469.532-.074 1.072-.055 1.606-.058.23-.001.464.009.69.051.063.012.693.171.678.229" fill="#B7ECFF"/><path d="M765.474 596.5c.392.105.448.664.48.995.04.403.05.809.05 1.214-.002.367.015.752-.054 1.114-.012.063-.17.693-.229.677-.395-.106-.423-.698-.469-1.026-.074-.532-.055-1.072-.058-1.606a3.71 3.71 0 0 1 .051-.69c.012-.063.171-.694.23-.678M589.6 547.375c-.107.392-.665.448-.996.48-.403.039-.809.05-1.214.049-.367-.001-.752.016-1.114-.053-.063-.012-.693-.171-.677-.228.106-.396.698-.423 1.026-.47.532-.074 1.072-.055 1.606-.058.23-.001.464.009.69.051.063.012.693.171.678.229" fill="#B7ECFF"/><path d="M587.474 545.5c.392.106.448.664.48.995.04.404.05.81.05 1.214-.002.368.015.752-.054 1.113-.012.065-.17.693-.229.678-.395-.106-.423-.697-.469-1.026-.074-.531-.055-1.072-.058-1.606 0-.23.01-.464.051-.69.012-.063.171-.693.23-.678M569.6 142.375c-.107.392-.665.448-.996.48-.403.039-.809.05-1.214.049-.367-.001-.752.016-1.114-.053-.063-.012-.693-.171-.677-.228.106-.396.698-.423 1.026-.47.532-.074 1.072-.055 1.606-.058.23-.001.464.009.69.051.063.012.693.171.678.229" fill="#B7ECFF"/><path d="M567.474 140.5c.392.105.448.664.48.995.04.403.05.81.05 1.213-.002.368.015.752-.054 1.114-.012.064-.17.693-.229.677-.395-.106-.423-.697-.469-1.026-.074-.53-.055-1.07-.058-1.605 0-.23.01-.464.051-.69.012-.064.171-.694.23-.678" fill="#B7ECFF"/><path d="M455.87 619a1 1 0 1 1-2 0 1 1 0 1 1 2 0" fill="#00B3FF"/><path d="M657.37 620.5a1 1 0 1 1-2 0 1 1 0 1 1 2 0M814.37 651.5a1 1 0 1 1-2 0 1 1 0 1 1 2 0M358.37 903.5a1 1 0 1 1-2 0 1 1 0 1 1 2 0" fill="#71CEFC"/><path d="M421.73 671.613c-.324 1.201-2.035 1.374-3.05 1.471-1.237.118-2.48.155-3.722.151-1.126-.004-2.304.048-3.415-.163-.193-.037-2.123-.524-2.075-.7.327-1.214 2.14-1.297 3.147-1.439 1.628-.227 3.283-.17 4.922-.179.704-.004 1.422.026 2.114.158.194.036 2.126.524 2.08.701" fill="#B7ECFF"/><path d="M415.217 665.865c1.2.323 1.374 2.035 1.47 3.05.119 1.236.156 2.48.152 3.721-.004 1.126.048 2.305-.163 3.416-.037.193-.524 2.122-.701 2.075-1.213-.327-1.296-2.14-1.438-3.147-.227-1.628-.17-3.283-.18-4.922-.003-.704.027-1.422.159-2.115.036-.194.524-2.126.7-2.078M274.73 841.613c-.324 1.201-2.035 1.374-3.05 1.471-1.237.118-2.48.155-3.722.151-1.126-.004-2.304.048-3.415-.163-.193-.037-2.123-.524-2.075-.7.327-1.214 2.14-1.297 3.147-1.439 1.628-.227 3.283-.17 4.922-.179.704-.004 1.422.026 2.114.158.194.036 2.126.524 2.08.701" fill="#B7ECFF"/><path d="M268.217 835.865c1.2.323 1.374 2.035 1.47 3.05.119 1.236.156 2.48.152 3.721-.004 1.126.048 2.305-.163 3.416-.037.193-.524 2.122-.701 2.075-1.213-.327-1.296-2.14-1.438-3.147-.227-1.628-.17-3.283-.18-4.922-.003-.704.027-1.422.159-2.115.036-.194.524-2.126.7-2.078M189.73 1028.613c-.324 1.201-2.035 1.374-3.05 1.471-1.237.118-2.48.155-3.722.151-1.126-.004-2.304.048-3.415-.163-.193-.037-2.123-.524-2.075-.7.327-1.214 2.14-1.297 3.147-1.439 1.628-.227 3.283-.17 4.922-.179.704-.004 1.422.026 2.114.158.194.036 2.126.524 2.08.701" fill="#B7ECFF"/><path d="M183.217 1022.865c1.2.323 1.374 2.035 1.47 3.05.119 1.236.156 2.48.152 3.721-.004 1.126.048 2.305-.163 3.416-.037.193-.524 2.122-.701 2.075-1.213-.327-1.296-2.14-1.438-3.147-.227-1.628-.17-3.283-.18-4.922-.003-.704.027-1.422.159-2.115.036-.194.524-2.126.7-2.078M359.73 1068.738c-.218.81-1.37.926-2.055.99-.834.08-1.67.106-2.508.103-.758-.003-1.552.032-2.3-.11-.13-.025-1.43-.353-1.399-.472.22-.818 1.442-.874 2.12-.969 1.097-.153 2.212-.115 3.317-.12.474-.004.958.016 1.425.105.13.025 1.432.354 1.4.473" fill="#B7ECFF"/><path d="M355.342 1064.865c.809.218.926 1.371.99 2.055.08.833.106 1.671.103 2.507-.003.76.032 1.553-.111 2.301-.024.131-.352 1.431-.471 1.4-.818-.222-.874-1.443-.97-2.12-.152-1.098-.114-2.213-.12-3.318a7.394 7.394 0 0 1 .106-1.425c.025-.13.354-1.432.473-1.4M240.598 764.25c-.21.784-1.327.896-1.989.96-.807.077-1.618.101-2.428.099-.735-.003-1.504.031-2.228-.107-.126-.024-1.384-.342-1.354-.457.214-.792 1.395-.846 2.053-.938 1.062-.149 2.142-.111 3.211-.118a7.33 7.33 0 0 1 1.38.104c.126.023 1.386.342 1.355.457" fill="#B7ECFF"/><path d="M236.35 760.501c.782.211.895 1.327.958 1.989.077.807.102 1.618.1 2.428-.003.735.031 1.503-.107 2.228-.024.126-.343 1.384-.457 1.353-.792-.213-.847-1.394-.938-2.052-.149-1.062-.11-2.142-.118-3.211a7.33 7.33 0 0 1 .104-1.38c.023-.126.342-1.386.457-1.355M188.598 957.25c-.21.784-1.327.896-1.989.96-.807.077-1.618.101-2.428.099-.735-.003-1.504.031-2.228-.107-.126-.024-1.384-.342-1.354-.457.214-.792 1.395-.846 2.053-.938 1.062-.149 2.142-.111 3.211-.118a7.33 7.33 0 0 1 1.38.104c.126.023 1.386.342 1.355.457" fill="#B7ECFF"/><path d="M184.35 953.501c.782.211.895 1.327.958 1.989.077.807.102 1.618.1 2.428-.003.735.031 1.503-.107 2.228-.024.126-.343 1.384-.457 1.353-.792-.213-.847-1.394-.938-2.052-.149-1.062-.11-2.142-.118-3.211a7.33 7.33 0 0 1 .104-1.38c.023-.126.342-1.386.457-1.355" fill="#B7ECFF"/><path d="M493.37 951a1.5 1.5 0 1 1-3.001-.001 1.5 1.5 0 0 1 3 .001M143.37 867a1.5 1.5 0 1 1-3.001-.001 1.5 1.5 0 0 1 3 .001" fill="#71CEFC"/><path d="M130.6 923.375c-.107.392-.665.448-.996.479-.403.04-.809.051-1.214.05-.367-.001-.752.016-1.114-.053-.063-.012-.693-.171-.677-.229.106-.395.698-.423 1.026-.469.532-.074 1.072-.055 1.606-.058.23-.001.464.009.69.051.063.012.693.171.678.229" fill="#B7ECFF"/><path d="M128.474 921.5c.392.105.448.664.48.995.04.403.05.809.05 1.214-.002.367.015.752-.054 1.114-.012.063-.17.693-.229.677-.395-.106-.423-.698-.469-1.026-.074-.532-.055-1.072-.058-1.606a3.71 3.71 0 0 1 .051-.69c.012-.063.171-.694.23-.678M68.6 1009.375c-.107.392-.665.448-.996.479-.403.04-.809.051-1.214.05-.367-.001-.752.016-1.114-.053-.063-.012-.693-.171-.677-.229.106-.395.698-.423 1.026-.469.532-.074 1.072-.055 1.606-.058.23-.001.464.009.69.051.063.012.693.171.678.229" fill="#B7ECFF"/><path d="M66.474 1007.5c.392.105.448.664.48.995.04.403.05.809.05 1.214-.002.367.015.752-.054 1.114-.012.063-.17.693-.229.677-.395-.106-.423-.698-.469-1.026-.074-.532-.055-1.072-.058-1.606a3.71 3.71 0 0 1 .051-.69c.012-.063.171-.694.23-.678M561.6 1068.375c-.107.392-.665.448-.996.479-.403.04-.809.051-1.214.05-.367-.001-.752.016-1.114-.053-.063-.012-.693-.171-.677-.229.106-.395.698-.423 1.026-.469.532-.074 1.072-.055 1.606-.058.23-.001.464.009.69.051.063.012.693.171.678.229" fill="#B7ECFF"/><path d="M559.474 1066.5c.392.105.448.664.48.995.04.403.05.809.05 1.214-.002.367.015.752-.054 1.114-.012.063-.17.693-.229.677-.395-.106-.423-.698-.469-1.026-.074-.532-.055-1.072-.058-1.606a3.71 3.71 0 0 1 .051-.69c.012-.063.171-.694.23-.678M383.6 1017.375c-.107.392-.665.448-.996.479-.403.04-.809.051-1.214.05-.367-.001-.752.016-1.114-.053-.063-.012-.693-.171-.677-.229.106-.395.698-.423 1.026-.469.532-.074 1.072-.055 1.606-.058.23-.001.464.009.69.051.063.012.693.171.678.229" fill="#B7ECFF"/><path d="M381.474 1015.5c.392.105.448.664.48.995.04.403.05.809.05 1.214-.002.367.015.752-.054 1.114-.012.063-.17.693-.229.677-.395-.106-.423-.698-.469-1.026-.074-.532-.055-1.072-.058-1.606a3.71 3.71 0 0 1 .051-.69c.012-.063.171-.694.23-.678M215.6 1050.375c-.107.392-.665.448-.996.479-.403.04-.809.051-1.214.05-.367-.001-.752.016-1.114-.053-.063-.012-.693-.171-.677-.229.106-.395.698-.423 1.026-.469.532-.074 1.072-.055 1.606-.058.23-.001.464.009.69.051.063.012.693.171.678.229" fill="#B7ECFF"/><path d="M213.474 1048.5c.392.105.448.664.48.995.04.403.05.809.05 1.214-.002.367.015.752-.054 1.114-.012.063-.17.693-.229.677-.395-.106-.423-.698-.469-1.026-.074-.532-.055-1.072-.058-1.606a3.71 3.71 0 0 1 .051-.69c.012-.063.171-.694.23-.678" fill="#B7ECFF"/><path d="M249.87 1089a1 1 0 1 1-2 0 1 1 0 1 1 2 0" fill="#00B3FF"/><path d="M451.37 1090.5a1 1 0 1 1-2 0 1 1 0 1 1 2 0M117.37 1058.5a1 1 0 1 1-2 0 1 1 0 1 1 2 0M152.37 785.5a1 1 0 1 1-2 0 1 1 0 1 1 2 0" fill="#71CEFC"/><path d="M735.73 958.613c-.324 1.201-2.035 1.374-3.05 1.471-1.237.118-2.48.155-3.722.151-1.126-.004-2.304.048-3.415-.163-.193-.037-2.123-.524-2.075-.7.327-1.214 2.14-1.297 3.147-1.439 1.628-.227 3.283-.17 4.922-.179.704-.004 1.422.026 2.114.158.194.036 2.126.524 2.08.701" fill="#B7ECFF"/><path d="M729.217 952.865c1.2.323 1.374 2.035 1.47 3.05.119 1.236.156 2.48.152 3.721-.004 1.126.048 2.305-.163 3.416-.037.193-.524 2.122-.701 2.075-1.213-.327-1.296-2.14-1.438-3.147-.227-1.628-.17-3.283-.18-4.922-.003-.704.027-1.422.159-2.115.036-.194.524-2.126.7-2.078M529.598 590.25c-.21.784-1.327.897-1.989.96-.807.076-1.618.101-2.428.098-.735-.002-1.504.031-2.228-.106-.126-.024-1.384-.343-1.354-.458.214-.79 1.395-.846 2.053-.937 1.062-.149 2.142-.112 3.211-.118a7.33 7.33 0 0 1 1.38.103c.126.024 1.386.342 1.355.458" fill="#B7ECFF"/><path d="M525.35 586.5c.782.212.895 1.329.958 1.99.077.806.102 1.618.1 2.428-.003.734.031 1.503-.107 2.228-.024.126-.343 1.385-.457 1.354-.792-.213-.847-1.395-.938-2.052-.149-1.063-.11-2.142-.118-3.212a7.32 7.32 0 0 1 .104-1.38c.023-.126.342-1.386.457-1.355M635.6 698.375c-.107.392-.665.448-.996.479-.403.04-.809.051-1.214.05-.367-.001-.752.016-1.114-.053-.063-.012-.693-.171-.677-.229.106-.395.698-.423 1.026-.469.532-.074 1.072-.055 1.606-.058.23-.001.464.009.69.051.063.012.693.171.678.229" fill="#B7ECFF"/><path d="M633.474 696.5c.392.105.448.664.48.995.04.403.05.809.05 1.214-.002.367.015.752-.054 1.114-.012.063-.17.693-.229.677-.395-.106-.423-.698-.469-1.026-.074-.532-.055-1.072-.058-1.606a3.71 3.71 0 0 1 .051-.69c.012-.063.171-.694.23-.678M357.6 795.375c-.107.392-.665.448-.996.479-.403.04-.809.051-1.214.05-.367-.001-.752.016-1.114-.053-.063-.012-.693-.171-.677-.229.106-.395.698-.423 1.026-.469.532-.074 1.072-.055 1.606-.058.23-.001.464.009.69.051.063.012.693.171.678.229" fill="#B7ECFF"/><path d="M355.474 793.5c.392.105.448.664.48.995.04.403.05.809.05 1.214-.002.367.015.752-.054 1.114-.012.063-.17.693-.229.677-.395-.106-.423-.698-.469-1.026-.074-.532-.055-1.072-.058-1.606a3.71 3.71 0 0 1 .051-.69c.012-.063.171-.694.23-.678" fill="#B7ECFF"/><path d="M522.37 110.5a1 1 0 1 1-2 0 1 1 0 0 1 2 0M572.37 160.5a1 1 0 1 1-2 0 1 1 0 0 1 2 0M460.37 738.5a1 1 0 1 1-2 0 1 1 0 1 1 2 0" fill="#71CEFC"/><path d="M626.73 116.613c-.324 1.201-2.035 1.374-3.05 1.47-1.237.118-2.48.156-3.722.152-1.126-.004-2.304.048-3.415-.163-.193-.037-2.123-.524-2.075-.7.327-1.214 2.14-1.298 3.147-1.439 1.628-.228 3.283-.17 4.922-.179.704-.004 1.422.026 2.114.157.194.037 2.126.525 2.08.702" fill="#B7ECFF"/><path d="M620.217 110.865c1.2.324 1.374 2.035 1.47 3.05.119 1.237.156 2.48.152 3.722-.004 1.126.048 2.304-.163 3.414-.037.194-.524 2.123-.701 2.075-1.213-.326-1.296-2.138-1.438-3.146-.227-1.628-.17-3.283-.18-4.922-.003-.704.027-1.422.159-2.114.036-.195.524-2.126.7-2.079" fill="#B7ECFF"/><path d="M428.213 548.332c4.247 3.001 7.813 6.894 10.63 11.254 5.569 8.623 8.142 18.767 9 28.91.47 5.547.115 11.109.523 16.649.326 4.4 1.56 8.473 4.228 12.016.495.659 1.136 1.263 1.936 1.46 4.029.991 8.266-3.508 10.453-6.226a34.195 34.195 0 0 0 5.04-8.612c.21-.513 1.792-1.281 2.259-1.656a29.84 29.84 0 0 0 2.097-1.843c4.194-4.048 7.455-9.817 7.554-15.751.093-5.613-2.343-11.901-4.653-16.946-4.391-9.593-10.998-18.749-20.62-23.604-9.192-4.639-20.534-4.603-28.74 2.082-.78.637-.39 1.785.293 2.267" fill="#5F5FFA"/><path d="M438.733 544.55c-.175-1.09 5.187-1.42 7.666-.776 17.408 4.52 31.786 19.319 32.984 37.77.025.379.036.785-.172 1.103-.414.63-1.458.473-1.948-.101-.489-.575-.585-1.375-.69-2.122a28.52 28.52 0 0 0-5.46-13.148c.481 4.537.148 9.16-.978 13.582-.462 1.81-1.777 3.944-3.214 1.748-.733-1.121-.769-2.665-1.136-3.922-.82-2.81-1.67-5.613-2.712-8.351-3.542-9.311-8.812-18.355-18.154-22.44-.099-.042-6.052-2.51-6.186-3.342m-10.52 3.78c4.247 3.002 7.813 6.895 10.63 11.255 5.57 8.623 8.142 18.767 9 28.91.47 5.547.115 11.11.523 16.65.325 4.399 1.56 8.472 4.227 12.015.495.66 1.136 1.263 1.937 1.46 4.028.992 8.265-3.507 10.452-6.226a34.177 34.177 0 0 0 5.041-8.612c.21-.513 1.791-1.281 2.26-1.656a30.068 30.068 0 0 0 2.096-1.843c4.194-4.047 7.455-9.817 7.553-15.751.093-5.613-2.343-11.901-4.652-16.946-4.392-9.593-10.998-18.748-20.619-23.604-9.194-4.64-20.535-4.603-28.74 2.083-.78.636-.39 1.784.291 2.266" fill="#4747EC"/><path d="M343.138 751.642c.085.467 3.074 27.732 6.231 29.858 6.661 4.486 19.886 2.79 27.956 1.41 1.005-.172 4.004-11.513 3.695-12.253.358-1.348.248-2.808.271-4.2l.096-5.68c.04-2.335.08-4.671.118-7.006.192-.12.361-.304.49-.565 1.264-2.57 1.545-5.341 1.735-8.163.205-3.063.33-6.131.373-9.201.153-10.721-.686-21.448-2.449-32.023a176.256 176.256 0 0 0-3.377-15.753c-.532-2.022-.935-4.456-3.07-5.39a4.164 4.164 0 0 0-.415-.153c.187-.236.294-.525.253-.832-.15-1.145-.87-2.098-2.144-2.096-1.234.002-1.999.964-2.549 1.944a53.42 53.42 0 0 0-1.168 2.208c-.005.002-.01.003-.013.007-.466.485-.398.719-.68 1.415a88.968 88.968 0 0 0-1.652 3.744c-6.984 16.782-8.512 36.422-19.892 51.126-3.578 2.46-11.209.707-11.578 1.46-1.639 3.367 7.084 6.383 7.77 10.143" fill="#FFBE00"/><path d="M366.186 742.645c1.58 7.023 6.091 13.067 8.046 19.995 1.638 5.803 1.414 11.92 2.77 17.775 1.247 5.383 4.324 9.279 8.738 12.52 14.154 10.393 30.62 9.803 47.321 9.099 9.112-.385 22.19.793 29.016-6.41 5.511-5.815 5.916-15.587 7.42-23.04 2.248-11.161 4.533-22.564 9.746-32.79 2.671-5.24 6.283-9.928 9.047-15.115 3.383-6.346 4.26-13.656 4.813-20.726.3-3.833-.266-7.043-2.576-10.226-1.903-2.621-4.429-4.71-6.889-6.817a255.769 255.769 0 0 1-16.65-15.61c-2.454-2.515-4.828-5.107-7.263-7.641a153.017 153.017 0 0 0-4.053-4.085c-1.004-.968-3.043-2.183-3.693-3.38a1.18 1.18 0 0 0-.623-.536c-.024-.02-.047-.042-.07-.063a1.462 1.462 0 0 0-1.495-.253c-7.797-1.244-15.56.678-23.014 2.975-7.467 2.3-14.847 4.375-22.598 5.27-.698-1.365-1.95-3.516-3.762-2.942-.698.22-1.279.702-1.848 1.163-6.546 5.31-13.987 9.516-21.967 12.244-1.572.536-3.2 1.038-4.507 2.065-2.927 2.305-2.299 7.672-1.509 10.826 1.14 4.548 1.97 9.08 2.155 13.777a61.059 61.059 0 0 1-2.486 19.82c-1.1 3.683-3.093 7.017-3.98 10.762a25.279 25.279 0 0 0-.089 11.344" fill="#FFD341"/><path d="M374.92 695.298c.149-1.354.937-2.65 1.65-3.772 1.53-2.407 3.495-4.47 5.197-6.744.473-.632-.036-1.583-.72-1.766-.41-.111-2.474-.133-2.605-.448-.19-.457 1.04-1.92 1.282-2.276 1.486-2.202 2.618-4.67 3.884-7.003a123.41 123.41 0 0 0 1.485-2.792 73.2 73.2 0 0 0 13.476-8.688c.57-.462 1.15-.944 1.849-1.164a1.904 1.904 0 0 1 1.533.152c-3.846 8.547-9.456 16.69-9.237 26.418.103 4.609 2.176 8.633 3.79 12.847 1.146 2.994 1.649 5.858 1.646 9.03-.001 1.752-.003 3.579-.205 5.363a18.54 18.54 0 0 0-1.296-1.544c-.164-.177-.327-.36-.49-.54-.93-1.467-2.11-2.806-3.218-3.907a26.856 26.856 0 0 0-4.002-3.993c-3.661-2.948-8.061-4.461-12.17-6.633-1.127-.596-2.003-1.141-1.85-2.54M433.958 786.648c-.576-3.36.313-7.18-1.305-10.316-1.282-2.486-3.917-3.46-6.408-4.298-3.45-1.16-6.868-2.433-10.294-3.663-5.455-1.96-10.847-4.026-16.367-5.786-2.155-.688-4.314-1.426-6.327-2.468-1.36-.702-3.46-1.796-3.808-3.46-.105-.506-.064-.695.312-.879.568-.278 1.3-.278 1.93-.268 1.997.035 3.982.521 5.905 1.02 5.114 1.327 10.177 2.733 15.419 3.517 6.445.964 13.274 1.136 19.74.181 2.732-.403 5.527-1.208 7.68-3.015 2.373-1.992 4.004-4.825 5.327-7.583 1.405-2.928 2.587-5.956 3.992-8.886 1.406-2.933 2.834-5.886 3.766-9.008 2.736-2.872 6.938-2.84 10.61-2.07 6.214 1.296 11.19 5.181 15.118 10.118l-.005.01c-5.213 10.225-7.498 21.628-9.747 32.79-1.503 7.453-1.907 17.225-7.42 23.04-4.516 4.766-11.771 5.862-18.803 6.17-1.94-1.954-3.73-4.043-5.274-6.313-1.785-2.623-3.498-5.668-4.041-8.833" fill="#FFBE00"/><path d="M402.308 715.086c-.833.383-1.77.817-2.657 1.347-.375-1.507-.898-2.986-1.412-4.425a62.586 62.586 0 0 0-2.84-6.7c-.954-1.922-2.023-3.84-3.259-5.633.033-.298.067-.595.103-.888.142-1.212.293-2.381.43-3.486a86.931 86.931 0 0 1 3.214-15.007c1.38-4.47 2.907-10.497 6.102-14.048 1.687-1.875 3.888-3.111 5.518-5.07 3.332-4.004 4.801-9.241 5.222-14.353a41.581 41.581 0 0 0-.105-7.705c-.287-2.76-1.4-5.036 1.252-6.905a115.01 115.01 0 0 1 15.963-9.413c2.574-1.25 5.227-2.595 7.972-3.407 2.993-.885 6.378-.81 6.301 3.036-.285 14.293-1.878 29.01 4.041 42.473 1.31 2.98 2.644 5.896 1.304 9.064-5.395 12.754-15.348 21.828-25.462 30.746-1.54.302-3.057.899-4.4 1.473-2.879 1.229-5.6 2.779-8.304 4.345-2.93 1.7-5.913 3.144-8.983 4.556" fill="#D8D8FF"/><path d="M437.811 619.393c-2.745.812-5.397 2.157-7.972 3.407a115.11 115.11 0 0 0-15.963 9.413c-2.653 1.869-1.539 4.147-1.252 6.906a41.58 41.58 0 0 1 .105 7.705c-.192 2.345-.61 4.716-1.326 6.983.978.973 2.648 1.31 3.932 1.309 2.174-.001 4.463-.891 6.41-1.79a36.65 36.65 0 0 0 1.126-.551c5.527-3.792 10.57-8.33 14.744-13.571 2.506-3.146 4.652-6.586 6.308-10.252.073-2.18.146-4.357.19-6.523.076-3.845-3.309-3.921-6.302-3.036" fill="#B4B4FF"/><path d="M376.166 629.232c-1.128 7.905 3.709 15.688 9.494 20.664.488.42 1.022.84 1.657.94 3.379.535-.85-3.808-1.45-4.49-5.894-6.712-2.214-17.093 1.82-23.737 2.239-3.69 5.649-6.479 5.068-11.2-.845-6.876-3.063-13.534-6.403-19.597-.688-1.248-2.923-4.214-4.272-1.93-.73 1.236.022 3.136.097 4.454.137 2.4.185 4.804.114 7.206-.14 4.69-.726 9.396-2.08 13.898-1.378 4.583-3.364 9.023-4.045 13.792" fill="#4747EC"/><path d="M469.08 787.13c.348.053.656-.007.917-.14 6.74.555 13.398-1.213 19.579-3.8 3.203-1.342 6.314-2.88 9.41-4.446 1.715-.866 3.739-1.935 4.49-3.824.843-2.121-.472-4.31-2.517-5.102-1.376-.533-2.88-.376-4.315-.258-1.5.123-2.993.265-4.49.425-4.31.46-8.627 1.172-12.718 2.647-3.692 1.33-7.186 3.215-10.122 5.842-1.384 1.238-2.906 2.772-3.048 4.734-.13 1.759.977 3.649 2.814 3.923" fill="#FFB300"/><path d="M385.492 618.9c1.599 7.187 3.827 13.22 8.02 19.27 7.952 11.473 17.294 9.255 22.142 7.825 4.027-1.189 8.368-2.826 11.95-5.018 10.959-6.7 22.325-17.142 20.54-31.208-.58-4.586-2.295-8.962-4.427-13.062-6.042-11.62-16.125-20.438-29.382-22.395-8.101-1.196-16.803-.156-22.278 6.578-2.692 3.313-4.847 6.731-6.315 10.445-3.313 8.388-2.174 18.916-.25 27.565" fill="#D8D8FF"/><path d="M439.228 614.455c-1.153-1.945-2.387-3.866-3.385-5.897-.915-1.864-1.683-3.792-2.764-5.57-.357-.587-1.056-.725-1.646-.432-1.948.967-4.375.516-6.419.136-2.243-.417-4.039-1.68-6.08-2.614-1.708-.78-3.399-1.147-5.277-.959-1.988.2-3.906.77-5.878 1.043-2.015.28-3.697-.244-5.557-.954-1.828-.696-3.587-1.13-5.558-.956-2.194.194-4.29.718-6.509.523a34.816 34.816 0 0 1-6.107-1.117c.343-2.172.892-4.294 1.694-6.323 1.467-3.714 3.623-7.132 6.315-10.444 5.475-6.735 14.177-7.775 22.277-6.579 13.257 1.957 23.34 10.776 29.382 22.395 2.133 4.101 3.848 8.477 4.43 13.062.651 5.146-.457 9.806-2.66 13.976-2.714-2.536-4.4-6.157-6.258-9.29" fill="#B4B4FF"/><path d="M378.009 694.515c-.123 1.108.375 2.208 1.655 1.998 5.428-.892 10.307 2.923 12.933 7.34 2.766 4.652 3.668 9.925 4.719 15.152.156.778.552 1.812 1.526 1.297.27-.143.493-.364.715-.577 1.748-1.677 3.91-3.108 5.95-4.407a40.848 40.848 0 0 1 6.515-3.371c1.129-.46 2.276-.87 3.435-1.244 4.153-1.338 8.435-2.204 12.65-3.31 4.177-1.097 8.643-1.697 12.958-1.892 1.425 0 1.601-1.545 1.034-2.517-.964-1.651-2.281-3.187-3.448-4.697-.192-.247-2.728-3.615-2.788-3.583.592-.323 1.385-.164 2.027-.16 4.091.033 8.045.214 12.093.886 2.3.383 6.002 1.699 7.868-.438.524-.602.834-1.357 1.122-2.101.253-.654.498-1.313.73-1.975 2.882-8.18 3.599-17.186 1.577-25.653-1.9-7.957-9.097-13.065-15.616-17.344-.219-.281-1.717-.622-1.707-.345.03.826.247 3.93.266 5.204.08 5.444-1.589 10.66-4.446 15.302-3.265 5.305-7.494 10.04-11.494 14.795a526.87 526.87 0 0 1-12.804 14.655c-4.14 4.564-8.49 8.94-12.597 13.53a61.493 61.493 0 0 0-2.72 3.238 80.66 80.66 0 0 1-.995-13.37 80.956 80.956 0 0 1 3.928-24.114c2.24-6.951 5.338-13.575 8.804-19.993.166-1.244.296-2.491.377-3.742.012-.781.04-1.56.091-2.34.005-.381.095-1.392.08-1.603-.19-.085-.541.133-.702.203-2.557 1.115-4.932 2.98-7.163 4.62a64.778 64.778 0 0 0-3.93 3.103c-6.267 5.404-9.68 13.047-15.29 19.023-.7.745-1.772 1.807-1.732 2.926.05 1.36 1.692 1.437 2.707 1.224 1.142-.24 2.231-.721 3.348-1.053l.31-.093c-.382.114-.983 1.103-1.254 1.41-2.077 2.37-4.068 4.814-6.05 7.262a393.288 393.288 0 0 0-2.56 3.196c-.7.884-1.588 1.773-1.963 2.858a3.143 3.143 0 0 0-.16.7" fill="#FFD341"/><path d="M451.88 819.126c2.888 2.498 6.507 4.361 10.338 4.762 2.424.254 4.964-.287 6.93-1.652.628.401 1.484.369 1.89-.494 7.899-16.744 14.07-34.834 13.586-53.56.823-.39 1.32-1.496.466-2.301-5.741-5.398-14.321-7.099-21.604-3.983a20.396 20.396 0 0 0-6.957 4.947c-.495-.059-1.016.122-1.358.664-2.56 4.06-3.836 8.552-4.834 13.138l-.015.049a1.614 1.614 0 0 0-.065.319c-1.147 5.349-1.95 10.818-3.994 15.882-.265.163-.48.427-.59.809-.114.397-.213.797-.304 1.197-.026.056-.05.112-.078.167-.16.324-.192.64-.138.926-1.19 7.027 1.257 14.397 6.728 19.13" fill="#D8D8FF"/><path d="M484.624 768.182c.138 5.322-.265 10.594-1.09 15.798-1.828-.311-3.837.13-5.754.925-3.641 1.507-6.987 3.44-10.827 4.49a36.069 36.069 0 0 1-18.467.144c.65-2.823 1.163-5.69 1.77-8.524a1.591 1.591 0 0 1 .08-.367c.999-4.587 2.275-9.078 4.835-13.14.342-.541.863-.722 1.358-.663a20.407 20.407 0 0 1 6.957-4.946c7.283-3.116 15.863-1.415 21.604 3.982.855.805.357 1.91-.466 2.3" fill="#B4B4FF"/><path d="M349.507 776.145c-4.396 5.614-2.522 14.138 2.377 18.812 5.174 4.934 13.388 6.395 19.955 8.67 5.827 2.018 11.653 4.037 17.48 6.054 11.552 4 23.07 8.12 34.673 11.971 11.173 3.71 22.879 6.788 34.754 6.4 7.318-.24 15.364-3.634 14.97-12.178-.124-2.692-1.057-5.292-2.293-7.686-6.708-12.982-21.097-16.703-34.728-17.106-12.7-.376-29.483 2.75-41.881-.57-7.853-2.1-14.054-8.072-18.992-14.415-3.376-4.338-3.9-11.06-10.691-8.703-4.011 1.393-8.5 2.874-12.082 5.424-1.328.947-2.532 2.038-3.542 3.327" fill="#D8D8FF"/><path d="M356.405 796.334c13.104 2.976 26.529 4.104 39.653 7.018 6.118 1.357 12.267 2.849 18.018 5.39 4.42 1.954 8.573 4.493 12.709 6.978 7.827 4.703 16.037 9.925 25.154 11.617 4.177.775 8.54.706 12.531-.866 3.398-1.338 6.223-3.561 8.603-6.237-2.026 5.37-8.413 7.623-14.327 7.818-11.875.388-23.581-2.691-34.754-6.4-11.603-3.85-23.121-7.97-34.673-11.971l-17.48-6.054c-6.389-2.212-14.334-3.656-19.526-8.276 1.361.341 2.724.672 4.092.983" fill="#B4B4FF"/><path d="M388.592 579.014c2.249 1.592 5.055 1.723 7.69 2.127a119.52 119.52 0 0 1 23.851 6.237c4.613 1.733 9.463 3.595 13.489 6.493 7.47 5.377 8.18 15.483 13.81 22.298.61.74 1.445.55 1.95.002.267-.044.532-.181.77-.443l.014-.017c.573.177 1.246.05 1.67-.58a49.293 49.293 0 0 0 6.389-13.7 51.113 51.113 0 0 0 1.962-11.904c.646-4.938.609-9.952-.293-14.893-.824-4.513-2.374-9.14-4.921-12.985a16.132 16.132 0 0 0-.255-.37 20.41 20.41 0 0 0-2.16-3.286c-1.243-1.528-2.774-2.786-4.248-4.082-1.664-1.46-3.32-2.933-4.992-4.382-2.641-2.287-5.423-3.8-8.642-5.13-3.402-1.406-6.843-2.505-10.572-2.123-3.43.35-6.807 1.383-10.108 2.34-3.175.92-6.338 2.014-9.244 3.608-3.014 1.653-5.572 3.898-7.727 6.567-2.072 2.566-4.076 5.335-5.682 8.219-.843 1.514-1.572 3.14-1.956 4.836-.346 1.524-.151 3.229-.671 4.7-.498 1.414-1.964 2.206-1.97 3.846-.004 1.15.689 2.35 1.846 2.622" fill="#5F5FFA"/><path d="M421.165 547.231c-3.432.634-6.854 1.378-10.13 2.602-3.418 1.277-6.29 3.221-9.057 5.567-.622.527-1.254 1.041-1.886 1.557-.13.149-.254.301-.38.453 4.044-.234 8.29.517 12.159-.889 3.233-1.175 5.279-4.144 7.644-6.468 1.427-1.404 3.087-2.408 4.769-3.389-1.05.17-2.092.377-3.12.567" fill="#8181F5"/><path d="M431.137 582.156a238.063 238.063 0 0 0 4.66-10.38c1.94.522 4.77 2.144 5.783 3.878 3.502 5.991 4.514 12.792 8.293 18.6 1.343 2.066 2.661 4.152 3.82 6.33 1.004 1.89 2.518 4.296 2.303 6.517-.212 2.19-1.547 3.903-2.606 5.742-1.138 1.978-4.738 5.511-6.928 2.795-1.024-1.272-1.405-2.9-2.138-4.328-1.06-2.06-1.942-4.205-2.88-6.32-1.855-4.185-4.018-8.38-7.822-11.119-1.834-1.32-3.84-2.424-5.915-3.4 1.036-2.815 2.139-5.597 3.43-8.315" fill="#4747EC"/><path d="M378.113 572.305a15.365 15.365 0 0 1 2.22-3.542c3.168-3.758 7.686-6 12.142-7.857 5.013-2.09 10.3-3.005 15.615-1.396.131.04.27.079.411.117.271-.095.543-.19.816-.281 2.131-.718 4.585-1.61 6.866-1.23 3.074.513 4.371 3.83 6.492 5.65.224-.228.334-.551.534-.843 2.539-3.694 7.387 3.426 9.151 5.056 4.634 4.28 8.786 8.42 9.679 14.974.273 2.01.003 4.02.217 6.01.237 2.205 1.302 4.246 2.385 6.142 3.482 6.096 7.822 11.638 11.33 17.708 4.72 8.164 3.94 19.272-.413 27.432l-.024.045c-1.041.453-1.917 1.156-2.876 1.768-.735.47-2.401 1.492-2.8.123-.175-.604-.035-1.377-.048-1.996-.05-2.512-.404-5.045-.676-7.542-.142-1.301-.31-2.6-.504-3.894-.197-1.305-.319-2.713-.697-3.978-.688-2.312-1.678-4.572-2.989-6.604a23.34 23.34 0 0 0-1.372-1.906c-2.106-2.89-4.417-5.631-6.376-8.627-1.911-2.924-3.398-6.116-4.285-9.501-.198-.76-.258-1.89-.64-2.488-1.374 2.663-2.843 4.995-5.965 5.734-3.674.87-7.873-.331-11.218-1.853-1.724-.784-.944-2.02-.863-2.417 1.1-5.402 1.757-10.65.968-16.156a43.52 43.52 0 0 1-.901 9.72c-.568 2.734-.71 6.383-3.209 8.142-1.232.866-2.779 1.154-4.282 1.24-2.8.162-5.638.305-8.418-.147a1.265 1.265 0 0 1-.729-.357c-.046-.048-3.523.288-4.071.232a35.406 35.406 0 0 1-3.398-.52c-1.287-.26-1.703-.23-2.926.128-1.917.56-4.006.157-5.644-.965-3.108-2.13-4.231-6.654-4.909-10.162-.999-5.174-.81-11.105 1.407-15.96" fill="#5F5FFA"/><path d="M410.866 568.602c.453-2.604-.653-4.175-3.235-5.42-4.09-1.97-8.437-2.137-12.703-1.655-3.519.398-7.404 1.646-9.564 4.655-.112.156-.225.313-.333.468l-.119.173a11.23 11.23 0 0 0-.595 1.028 1.19 1.19 0 0 1-.277.365.579.579 0 0 0-.113.13c-.817 1.358-1.509 2.803-1.888 4.327a6.12 6.12 0 0 0-.201 1.31c-.009.407.481.623.799.369.05-.04.095-.078.132-.113 2.095-1.958 3.632-4.422 5.798-6.31.758-.66 2.066-.25 2.053.85-.038 3.457-1.081 7.016-.374 10.464.049.238.169.678.216.788.094.218.265.398.145.287.071.065.028.034.103-.003.255-.125.51-.22.746-.407 1.276-1.023 1.848-2.972 2.715-4.326.845-1.323 2.244-2.734 3.887-1.692 1.738 1.1 2.307 3.844 2.892 5.672.353 1.105.705 2.317 1.425 3.249.713.923 1.429.712 2.22-.032 1.689-1.59 2.444-3.767 3.329-5.845 1.133-2.663 2.443-5.464 2.942-8.331M417.78 581.349c.064.585.121 1.64.48 2.062.452.53 1.025-.573 1.262-1.073 1.02-2.148 1.086-5.23 1.002-7.718-.13-3.837-1.113-8.06-3.375-9.948-.623-.518-1.372.32-1.156 1.28.866 3.86 1.16 7.898 1.478 11.935.092 1.154.18 2.314.308 3.462" fill="#8181F5"/><path d="M433.441 598.894c.144-.284.282-.572.417-.861.681 1.722 1.664 3.34 2.754 4.854 3.677 5.113 8.27 9.63 11.382 15.142 1.764 3.128 2.54 6.637 3.224 10.133.325 1.654.601 3.3.735 4.982.113 1.438.268 2.826.866 4.15.198.443.914.735 1.358.554 1.32-.535 2.5-1.474 3.493-2.637a30.07 30.07 0 0 1-2.112 5.035c-.4.752-.845 1.495-1.329 2.222-1.44 1.397-2.979 2.61-5.059 2.58-2.712-.036-.563-4.652-.365-5.986 1.192-7.99-.48-16.28-5.233-22.801-2.107-2.89-4.417-5.631-6.376-8.627-1.707-2.611-3.074-5.436-3.979-8.422.084-.085.161-.19.224-.317M420.259 594.98a35.853 35.853 0 0 0 1.76-2.678c.048.986.245 1.953.796 2.705.45.62 1.291.832 1.887.243 2.721-2.68 4.567-6.168 5.957-9.69.923-2.339 2.065-6.98 2.447-9.498 2.103 4.596 1.625 11.951.171 16.822-.233.194-.385.491-.366.895.002.067.01.133.014.2a27.755 27.755 0 0 1-.642 1.69c-.004-.008-.007-.017-.012-.025-1.374 2.663-2.843 4.995-5.964 5.734-3.4.806-7.242-.17-10.45-1.52 1.683-1.407 3.135-3.127 4.401-4.879M380.549 593.625c2.062.862 3.42-.21 4.63-1.776.292-.377.195-.341.535-.091.39.287.812.536 1.202.828.698.52 1.38 1.094 2.174 1.466 1.342.63 3.18 1.149 4.573.385.532-.291.913-.733 1.262-1.217.216-.299.358-.699.668-.873.912-.511 1.92 1.304 2.552 1.882 1.332 1.218 3.107 1.255 4.317-.152.742-.863 1.057-1.964 1.475-2.996.432 1.318.618 2.799 1.9 3.591 2.512 1.549 4.224-1.725 4.807-3.615.919-2.984 1.352-6.022 1.685-9.119.285-2.661.55-5.431 1.508-7.948 1.22 2.757 1.415 5.933 1.66 8.906.006.051.013.101.022.149l-.084.13a34.806 34.806 0 0 0-.241-2.222c.017.871-.031 3.955-.166 4.751a43.83 43.83 0 0 1-.736 4.969c-.567 2.733-.71 6.383-3.21 8.141-1.23.867-2.777 1.155-4.28 1.241-2.801.162-5.64.304-8.42-.148-.32-.052-.56-.181-.728-.356-.045-.048-3.523.288-4.071.231a35.119 35.119 0 0 1-3.397-.518c-1.287-.261-1.703-.231-2.926.127-1.918.56-4.007.157-5.645-.965-2.553-1.749-3.766-5.115-4.494-8.205.822 1.425 1.985 2.8 3.428 3.404" fill="#4747EC"/><path d="M470.634 781.337c6.6-2.554 14.507-4.978 21.258-7.081 2.918-.91 5.83-2.017 8.865-.622.315.144.632.32.827.608.303.443.252 1.047.514 1.515.483.864 1.454.273 1.86-.644 1.08-2.445-2.138-20.611-2.99-24.201-2.305-9.712-5.382-17.284-5.87-27.221-.243-4.925-2.735-14.816-4.004-21.708-1.245-6.76-10.567-5.655-12.971-4.093-5.33 3.46-8.476 9.184-11.387 14.677-3.026 5.708-7.04 11.407-9.09 17.528-5.543 16.542-8.809 33.45-11.298 51.864-.956 7.059 20.695.768 24.286-.622" fill="#FFD341"/><path d="M413.335 608.491c0 1.3.778 2.351 1.739 2.351.96 0 1.74-1.052 1.74-2.35 0-1.299-.78-2.35-1.74-2.35-.961 0-1.74 1.051-1.74 2.35M389.453 607.33c0 1.29.697 2.338 1.557 2.338s1.557-1.048 1.557-2.339c0-1.292-.697-2.339-1.557-2.339s-1.557 1.047-1.557 2.34" fill="#3333D1"/><path d="M397.52 614.108s.561 1.891-.56 3.151c-1.12 1.26-2.823 1.356-3.378 3.07-.382 1.18.121 2.707 1.264 3.342 1.34.744 3.43.81 4.06-.17" stroke="#8181F5" stroke-width="2.5" stroke-linecap="round"/><path d="M414.59 627.88s-3.497 4.567-8.96 4.656c-4.436.074-6.208-2.356-6.208-2.356M432.612 573.562c.096-.288 4.964 11.154-.34 22.082M388.801 570.686s-9.782 13.696-.776 28.04M397.654 599.55s-4.367-6.277-1.497-17.186" stroke="#3333D1" stroke-width="2.5" stroke-linecap="round"/><path d="M470.023 602.65s6.793-22.104.861-33.395" stroke="#2929B5" stroke-width="2.5" stroke-linecap="round"/><path d="M397.534 720.457s-5.558 10.188-6.716 18.641c-1.157 8.451 1.39 22.807 3.01 30.216 1.622 7.411-.578 19.567-.578 19.567" stroke="#FFB300" stroke-width="2.5" stroke-linecap="round"/><path d="M469.43 805.553s-12.157-14.356-22.809-13.662M366.969 773.945s-8.104 3.357-12.389 2.663M368.706 780.429s-10.188 2.663-13.777 1.737M369.284 786.102s-9.262 2.316-13.893 1.505" stroke="#B4B4FF" stroke-width="2.5" stroke-linecap="round"/><path d="M489.995 698.91s-6.331-7.492-17.643 3.053c-20.018 18.661-23.64 73.866-26.183 78.698-2.543 4.832 4.434 4.746 7.486 4.491" stroke="#FFB300" stroke-width="2.5" stroke-linecap="round"/><path d="M348.236 809.21a5.316 5.316 0 0 0 1.66 1.685c1.145.726 2.44 1.081 3.728 1.467a326.362 326.362 0 0 0 57.038 11.757c2.845.325 5.697.639 8.553.86 2.97.23 5.911.215 8.765-.735.581-.194.986-.905.901-1.5a5.57 5.57 0 0 0-4.519-4.694c-6.285-1.812-12.57-3.624-18.837-5.499-11.34-3.395-22.63-6.984-33.733-11.095a351.053 351.053 0 0 1-8.608-3.311c-2.414-.967-4.999-2.239-7.67-1.688-4.15.857-6.105 4.457-7.246 8.188a3.635 3.635 0 0 0-.708 2.709l-.084.371c-.165.749.221 1.263.76 1.485" fill="#71CEFC"/><path d="M235.655 723.959a421.248 421.248 0 0 1 8.22 35.159c1.067 5.646 1.961 11.32 2.891 16.987.639 3.889.248 9.758 3.623 12.48 1.238.997 2.826 1.42 4.364 1.816a1822.88 1822.88 0 0 0 53.631 12.945c7.05 1.589 13.97 3.733 21.033 5.298 3.768.834 22.241 6.166 24.333.648.339-.896.235-1.888.128-2.836-2.29-20.117-4.895-40.099-8.942-59.953a555.723 555.723 0 0 0-4.665-20.843c-.78-3.201-1.351-6.627-2.532-9.707-2.112-5.508-13.5-5.265-18.684-6.662-21.672-5.844-43.748-10.103-66.003-13.003a523.401 523.401 0 0 0-9.518-1.152c-2.702-.303-5.699-.682-8.247.527-8.849 4.2-1.487 21.659.368 28.296" fill="#B7ECFF"/><path d="M308.125 708.682s26.373 5.584 27.914 8.18c0 0 9.976 34.356 13.723 74.745" stroke="#F8FAFB" stroke-width="2"/><path d="M279.122 749.937c.358 3.26 2.74 6.472 7.846 7.741 4.243 1.057 8.113-.57 8.093-4.657-.016-3.277-4.172-6.144-8.337-7.474-5.258-1.678-7.961 1.13-7.602 4.39" fill="#71CEFC"/><path d="M462.941 677.424s-1.338 18.404-6.859 18.57c0 0-18.857-1.41-20.22-1.29-1.363.12 5.788 7.968 6.553 9.68.765 1.712-6.578 1.148-22.974 5.33-16.396 4.184-20.6 10.588-20.6 10.588" stroke="#FFB300" stroke-width="2" stroke-linecap="round"/><path d="M364.13 669.303a.061.061 0 0 1-.005-.012c-.271-.641-.386-1.337-.5-2.024-.264-1.621-.36-3.86-2.684-3.205-1.52.428-2.454 1.166-3.894.08-1.032-.78-1.641-2.022-2.387-3.047a111.8 111.8 0 0 1-2.988-4.313c-8.072-12.258-13.721-26.09-16.57-40.487-.427-2.157-.714-4.336-1.103-6.498-.082-.457 8.097-1.142 8.83-1.108 5.184.243 7.934 3.656 10.143 8.304.863 1.816 3.092 1.033 4.28.029 1.73-1.46 1.66-3.814 1.027-5.804-.875-2.75-2.003-5.526-2.286-8.418-.158-1.61.145-3.494-.63-4.976-.91-1.747-3.57-1.17-5.114-1.104-14.795.626-29.601 5.56-42.466 12.765-2.303 1.29-4.538 2.659-6.677 4.206-1.86 1.34-5.2 3.074-5.36 5.667-.064 1.073.686 2.083 1.104 3.027.55 1.24 1.029 2.519 1.543 3.775.985 2.412 1.82 4.975 2.984 7.304.838 1.677 2.366 3.034 4.337 2.32 2.36-.855 2.153-2.624 1.577-4.601-1.568-5.38.076-10.514 4.706-13.707 1.739-1.2 3.668-2.09 5.588-2.977 2.205-1.017 2.268.796 2.842 2.54 4.536 13.793 8.575 27.756 15.44 40.62 2.029 3.8 4.22 7.419 6.775 10.87.688.93-.798 3.77-1.346 4.566-.736 1.069-1.938 2.095-1.602 3.528.34 1.447 1.928 2.828 3.095 3.628 1.37.94 2.265.69 3.429-.496 4.079-4.154 9.548-6.92 15.31-7.742 1.66-.237 3.41-.777 2.602-2.71" fill="#B7ECFF"/><path d="M306.508 633.275c.133-.399-4.803-14.674 11.605-19.743M334.922 608.863s6.67-2.135 9.872-1.067M354.532 616.6s2.802 0 3.068-1.066c.267-1.068-2.535-15.875-3.202-17.21M344.393 679.967s7.604-7.604 18.143-9.34" stroke="#71CEFC" stroke-width="2" stroke-linecap="round"/><path d="M540.114 516.041a10.22 10.22 0 0 0-.637-1.177c-2.176-3.455-5.054-6.428-8.03-9.198-2.549-2.373-5.048-5.005-8.188-6.605-2.618-1.334-5.24.458-7.511 1.624-4.812 2.469-10.082 4.634-14.445 7.867-1.475 1.093-1.774 2.7-2.187 4.39-1.435 5.865-3.051 11.717-4.309 17.622-.459 2.159-1.345 3.786-.797 6.091 1.477 6.211 6.309 12.489 9.999 17.581 2.943 4.061 7.604 2.088 11.615.947 3.137-.893 6.2-2.022 9.231-3.222 2.345-.928 5.668-1.538 7.545-3.281 2.758-2.56 2.992-7.189 3.97-10.641 1.103-3.901 2.401-7.727 3.666-11.576 1.099-3.346 1.592-7.112.078-10.422" fill="#71CEFC"/><path d="M526.882 548.89c-1.354.4-3.324 1.27-4.757.837-1.346-.407-1.36-2.067-1.26-3.21.14-1.593.512-3.16.884-4.712 1.156-4.828 3.446-9.225 4.896-13.946.585-1.904 1.18-3.965 2.512-5.5 1.286-1.481 3.178-2.465 4.955-3.216 2.077-.876 4.246-1.475 6.449-1.933a9.967 9.967 0 0 0-1.083-2.345c-2.176-3.456-5.055-6.43-8.031-9.2-2.548-2.371-5.047-5.004-8.188-6.604-2.617-1.334-5.24.458-7.511 1.624-4.811 2.47-10.082 4.635-14.444 7.867-1.476 1.094-1.775 2.7-2.188 4.39-1.434 5.865-3.05 11.718-4.308 17.623-.46 2.158-1.346 3.785-.798 6.09 1.477 6.21 6.31 12.489 9.999 17.58 2.943 4.062 7.604 2.09 11.615.948 3.138-.893 6.2-2.022 9.232-3.222 2.344-.927 5.668-1.538 7.545-3.281a7.14 7.14 0 0 0 1.033-1.212c-2.173.55-4.41.788-6.552 1.422" fill="#00B3FF"/><path d="M519.524 553.065c-2.825-.08-5.033-1.605-7.224-3.218-1.77-1.303-3.978-3.25-6.334-3.031-.676.062-1.074-.678-.95-1.25.89-4.132.723-8.377 1.668-12.511.813-3.56 2.046-6.997 3.016-10.513.39-1.412.508-2.89 1.055-4.257.595-1.481 1.648-2.548 2.643-3.761.985-1.201 1.741-2.561 2.56-3.877a85.29 85.29 0 0 0 2.407-4.072c1.346-2.461 2.658-5.157 2.96-7.987-1.957-.013-3.866 1.219-5.577 2.097-4.812 2.469-10.082 4.634-14.445 7.867-1.475 1.094-1.774 2.7-2.187 4.39-1.435 5.865-3.05 11.717-4.309 17.623-.459 2.158-1.345 3.785-.798 6.09 1.478 6.21 6.31 12.489 10 17.58 2.943 4.062 7.604 2.089 11.615.948 2.43-.691 4.814-1.525 7.173-2.423-1.093.21-2.19.336-3.273.305" fill="#008DF8"/><path d="M521.002 500.724l-9.431 16.128M523.736 505.918l2.733 12.164M496.126 539.131l6.697 6.834M505.967 546.649l11.345 4.374M510.204 520.68l-5.057 22.825M503.643 510.428l6.15 7.654 15.856 3.281 13.258-3.007" stroke="#0074EF" stroke-width="2.5" stroke-linecap="round"/><path d="M562.788 698.137c-.703 3.114-4.395 4.654-7.204 5.202-3.155.614-7.038-.931-8.65-3.81a4.906 4.906 0 0 1 .603-5.672c2.195-2.491 7.866-2.382 10.785-1.695 2.723.642 5.14 2.99 4.466 5.975m37.125-18.086a43.315 43.315 0 0 0-.093-1.69c-.644-8.603-4.538-16.763-13.092-19.808-14.105-5.021-27.061 5.598-35.264 15.936-2.882 3.63-5.503 7.458-8.188 11.234-2.338 3.289-6.017 6.82-7.314 10.678-.678 2.015-.46 4.482 1.092 5.937 1.655 1.552 5.215 1.388 5.959 3.815.69 2.26-1.742 4.505-3.646 5.202-4.758 1.744-9.795-1.237-14.644-.144-4.196.945-6.936 4.837-7.907 8.815-1.751 7.17-.544 16.706 4.116 22.62 10.994 13.955 33.7 1.58 44.273-6.417 17.493-13.23 35.538-32.72 34.708-56.178" fill="#0052AB"/><path d="M532.544 723.122c-1.704-3.914-9.896-4.734-10.73.247-.252 1.507.449 3.131 1.718 3.981 1.42.952 3.298.896 4.959.484 1.975-.489 5.147-2.197 4.053-4.712M539.528 735.741c-.42-3.82-4.437-5.663-7.697-4.113-.899.427-1.759.97-2.416 1.717-1.083 1.232-1.524 2.95-1.386 4.583.094 1.117.483 2.273 1.355 2.978.951.77 2.263.856 3.484.912 1.344.062 2.773.103 3.936-.575 1.697-.989 2.938-3.559 2.724-5.502" fill="#00B3FF"/><path d="M554.27 727.849c-.747-1.034-1.837-1.275-2.976-1.238-2.65-.673-4.898 2.064-6.052 4.238-.615 1.157-1.049 2.562-.17 3.712.804 1.057 2.39 1.497 3.658 1.56 2.81.142 5.388-1.825 6.055-4.546.301-1.235.25-2.666-.516-3.726" fill="#008DF8"/><path d="M569.105 715.692c-3.73-2.443-9.715 3.463-7.97 7.298.79 1.733 3.127 2.318 4.922 1.68 3.197-1.136 6.943-6.427 3.048-8.978" fill="#0074EF"/><path d="M583.384 701.38c-.907-2.08-3.197-1.93-4.984-1.107-2.603 1.198-4.627 3.589-5.38 6.355-.311 1.144-.4 2.42.156 3.47.793 1.497 2.745 2.102 4.4 1.745 4.173-.9 7.573-6.411 5.808-10.462M585.707 678.013c-4.426-.582-5.712 4.568-5.741 7.902-.016 1.764.274 3.76 1.704 4.792 1.22.88 2.89.59 4.253-.047 4.71-2.203 6.68-11.74-.216-12.647" fill="#004393"/><path d="M580.446 665.87c-1.94-2.04-7.945-2.498-8.413 1.04-.944 1.646-1.245 3.84-.802 5.435.907 3.27 5.002 3.98 7.508 2.116 2.401-1.787 4.04-6.138 1.707-8.592M565.194 675.948c-1.46-3.29-5.507-2.655-7.944-1.02a1.414 1.414 0 0 0-.62.887c-1.192 1.418-1.958 3.804-2.12 4.956-.544 3.865 3.737 4.65 6.518 3.203 2.502-1.299 5.466-5.093 4.166-8.026" fill="#004174"/><path d="M517.317 726.98s.335 15.034 10.97 19.17c10.634 4.135 23.855-2.557 36.13-10.996 12.76-8.774 26.81-27.024 30.43-35.117" stroke="#004393" stroke-width="2" stroke-linecap="round"/><path d="M430.917 474.684a156.563 156.563 0 0 1-17.822-24.55c-.031-.744-.54-1.417-1.476-1.237-3.721.713-7 2.41-9.99 4.589l-.873-1.156c-.587-.777-1.14-1.556-2.198-1.583-1.59-.042-3.314 1.264-4.461 2.255-1.262 1.09-2.781 2.462-3.588 3.935-.42.768-.25 1.519.312 2.148l.325.36 1.378 2.2a128.607 128.607 0 0 0-5.468 5.84c-1.126-.591-2.25-1.187-3.392-1.747-1.256-.616-2.634-1.113-4.048-.85-2.676.5-4.653 3.568-6.012 5.694-.764 1.193-1.438 2.439-2.08 3.702-.52 1.028-1.468 2.349-1.361 3.56.05.555.3 1.028.638 1.456.04.16.114.313.23.44l4.134 4.567a95.967 95.967 0 0 0-5.041 10.492 98.82 98.82 0 0 0-2.951 8.289c-.91 2.958-1.81 5.959-1.893 9.072-.03 1.107.985 1.468 1.817 1.187 4.353 2.09 9.314 2.545 13.976 3.618 5.604 1.29 11.1 2.99 16.59 4.688.487.15.88.045 1.157-.198.578-.044 1.143-.384 1.34-1.086 1.178-4.166 2.36-8.347 4.125-12.31 1.829-4.103 4.424-7.701 7.058-11.314 2.586-3.546 5.027-7.316 8.086-10.48 3.092-3.2 6.918-5.75 10.434-8.453a1.41 1.41 0 0 0 .556-.898c.226-.218.423-.476.612-.778.243-.388.192-1.108-.114-1.452" fill="#113255"/><path d="M384.108 469.2c-1.375 2.226-6.52 8.802-6.735 10.303-.102.709-1.058 1.26-1.705.855-1.129-.71-2.287-1.618-3.123-2.661-.97-1.21.03-2.168.72-3.208.871-1.313 3.671-5.237 4.662-6.465 1.8-2.232 2.682-1.613 5.621-.43.558.225.886 1.079.56 1.607m28.986-19.475c-.03-.744-.539-1.417-1.475-1.237-3.72.712-7 2.409-9.99 4.589-.084-.11-9.117 8.14-9.105 8.16a127.522 127.522 0 0 0-5.469 5.839c-1.126-.59-2.25-1.188-3.39-1.747-1.257-.616-2.635-1.113-4.049-.85-2.676.5-4.654 3.568-6.013 5.694-.764 1.193-1.437 2.44-2.078 3.702-.52 1.029-1.47 2.349-1.362 3.56.05.555.3 1.028.637 1.456.041.16.115.313.231.44l4.134 4.567a95.857 95.857 0 0 0-5.04 10.49 98.975 98.975 0 0 0-2.953 8.29c-.909 2.959-1.809 5.96-1.892 9.073-.029 1.108.984 1.468 1.816 1.187 2.941 1.413 6.158 2.078 9.373 2.69.353-2.235 1.19-4.392 2.151-6.446 1.437-3.074 3.012-6.092 4.505-9.141 2.621-5.35 5.556-10.413 9.122-15.192a104.872 104.872 0 0 1 11.14-12.688c4.886-4.721 10.262-8.971 16.09-12.455a156.994 156.994 0 0 1-6.383-9.981" fill="#0161CD"/><path d="M411.778 479.62a18.148 18.148 0 0 0-2.107-3.853c-4.738-6.614-13.033-7.341-20.352-5.062-10.314 3.213-10.918 16.694-5.06 24.305 4.828 6.273 14.338 6.895 21.04 3.527 7.331-3.682 9.282-11.873 6.48-18.917" fill="#04458F"/><path d="M406.494 481.12a11.807 11.807 0 0 0-1.365-2.496c-3.07-4.283-8.44-4.754-13.18-3.278-6.68 2.081-7.07 10.811-3.277 15.74 3.127 4.061 9.286 4.465 13.626 2.284 4.747-2.385 6.01-7.689 4.196-12.25" fill="#002646"/><path d="M398.955 482.425c-.091 2.323-.43 4.632.208 6.905 1.39-.718 2.55-1.801 3.69-2.87 2.27-2.125 2.667-5.246-.05-7.281-.623-.467-2.561-2.231-3.345-1.298-.264.314-.302.753-.327 1.162-.07 1.12-.132 2.25-.176 3.382M391.915 485.066c2.32-2.158 5.855-5.609 4.604-6.942-2.72-2.895-6.934.573-7.724 3.452-.37 1.345-.377 2.764-.295 4.157.037.614.268 1.406.883 1.418.348.006.633-.267.873-.52.297-.315.916-.874 1.659-1.565" fill="#008DF8"/><path d="M375.977 494.945c-1.327-.48-2.147-.218-2.744 1.065a4386.11 4386.11 0 0 1-1.763 3.79c-.668 1.439-1.314 3.59-1.165 4.317.168.817 3.34 2.162 4.633 1.824 1.542-.404 1.882-2.308 2.36-3.624.5-1.378 2.374-2.682 2.197-4.221-.12-1.04-1.9-2.566-3.518-3.151" fill="#2C8CF4"/><path d="M383.012 478.033s4.15-11.35 18.548-7.52c13.067 3.478 10.952 19.143 10.952 19.143M381.707 489.886s3.872 12.332 18.836 11M365.5 509.366s-1.04 2.75.31 2.958c1.35.208 23.084 6.114 25.743 7.004 2.66.89 8.195 3.306 8.608.632" stroke="#0E2A47" stroke-width="2" stroke-linecap="round"/><path d="M504.872 403.955c-1.15-.392-1.55-1.823-1.048-2.855.249-.512.723-.916 1.283-1.041 1.465-.327 2.638 1.825 1.939 3.01-.436.74-1.34 1.17-2.174.886m17.38 33.067c.45-.637.579-1.497.545-2.72-.168-6.015-1.321-11.951-3.295-17.631-2.636-7.582-6.547-14.653-11.111-21.235-.703-1.011-2.285.117-3.02.5-1.382.723-2.83 1.182-4.281 1.737-1.166.447-3.137 1.246-3.642 2.518-.488 1.23.496 2.506.932 3.59a83.037 83.037 0 0 1 5.174 19.345c.55 3.893 1.584 7.7 1.613 11.672.016 2.228-.007 3.7 2.51 4.104 2.464.393 4.972.496 7.46.31 2.18-.162 5.71-.198 7.116-2.19" fill="#CCDAE1"/><path d="M522.253 437.022c.45-.638.578-1.498.544-2.72-.168-6.016-1.321-11.952-3.295-17.632-1.322-3.804-2.967-7.48-4.853-11.03-4.071 3.17-9.145 4.153-14.264 3.695a83.094 83.094 0 0 1 3.169 13.791c.55 3.893 1.584 7.701 1.613 11.672.016 2.227-.007 3.701 2.51 4.103 2.464.394 4.972.496 7.46.311 2.18-.163 5.71-.198 7.116-2.19" fill="#71CEFC"/><path d="M522.253 437.022c.45-.638.578-1.498.544-2.72-.168-6.016-1.321-11.952-3.295-17.632-.16-.46-.326-.919-.495-1.377a29.148 29.148 0 0 1-16.181 3.525c.28 1.43.524 2.866.728 4.308.55 3.893 1.584 7.701 1.613 11.672.016 2.227-.007 3.701 2.51 4.103 2.464.394 4.972.496 7.46.311 2.18-.163 5.71-.198 7.116-2.19" fill="#00B3FF"/><path d="M522.253 437.022c.45-.638.578-1.498.544-2.72a56.669 56.669 0 0 0-.877-8.421c-5.611 2.203-11.567 2.881-17.493 2.314.388 2.179.723 4.365.74 6.603.016 2.227-.007 3.701 2.51 4.103 2.464.394 4.972.496 7.46.311 2.18-.163 5.71-.198 7.116-2.19" fill="#008DF8"/><path d="M507.318 401.176c-1.474.099-2.59-1.318-2.512-2.71.04-.691.381-1.366.951-1.768 1.49-1.052 3.812.812 3.583 2.469-.142 1.03-.954 1.937-2.022 2.009m34.962 28.937c.206-.925-.053-1.95-.663-3.304-3.005-6.665-7.075-12.78-11.946-18.224-6.503-7.267-14.198-13.363-22.397-18.606-1.26-.805-2.505 1.2-3.15 1.975-1.212 1.456-2.62 2.648-3.988 3.95-1.098 1.046-2.933 2.865-2.904 4.528.03 1.608 1.73 2.576 2.726 3.589a100.824 100.824 0 0 1 14.854 19.266c2.44 4.107 5.38 7.89 7.272 12.33 1.06 2.49 1.724 4.153 4.735 3.425a39.066 39.066 0 0 0 8.508-3.142c2.37-1.203 6.31-2.896 6.953-5.787" fill="#E1EAEE"/><path d="M542.28 430.113c.206-.925-.053-1.949-.663-3.304-3.005-6.665-7.075-12.78-11.946-18.224-3.264-3.647-6.828-6.999-10.604-10.096-3.08 5.46-8.308 8.937-14.263 10.82a100.048 100.048 0 0 1 10.008 13.977c2.44 4.107 5.38 7.892 7.272 12.331 1.06 2.49 1.724 4.152 4.735 3.425a39.12 39.12 0 0 0 8.508-3.143c2.369-1.203 6.309-2.895 6.953-5.786" fill="#FFA78F"/><path d="M542.28 430.113c.206-.925-.053-1.949-.663-3.304-3.005-6.665-7.075-12.78-11.946-18.224a83.01 83.01 0 0 0-1.201-1.313 35.425 35.425 0 0 1-16.49 11.526 99.525 99.525 0 0 1 2.832 4.488c2.44 4.107 5.38 7.892 7.272 12.331 1.06 2.49 1.724 4.152 4.735 3.425a39.12 39.12 0 0 0 8.508-3.143c2.369-1.203 6.309-2.895 6.953-5.786" fill="#FF8678"/><path d="M542.28 430.113c.206-.925-.053-1.949-.663-3.304a68.795 68.795 0 0 0-4.925-9.029c-5.259 5.095-11.62 8.643-18.528 10.78 1.454 2.261 2.853 4.555 3.92 7.057 1.06 2.49 1.724 4.152 4.735 3.425a39.12 39.12 0 0 0 8.508-3.143c2.369-1.203 6.309-2.895 6.953-5.786" fill="#FF5151"/><path d="M509.062 399.66c-1.446.729-3.18-.227-3.694-1.667-.255-.715-.199-1.543.206-2.192 1.056-1.7 4.2-.808 4.675.965.296 1.104-.137 2.365-1.187 2.894m47.688 14.322c-.186-1.024-.885-1.948-2.08-3.057-5.882-5.453-12.607-9.896-19.854-13.32-9.674-4.567-20.053-7.444-30.577-9.243-1.617-.276-2.02 2.282-2.34 3.34-.605 1.989-1.519 3.796-2.345 5.695-.663 1.527-1.742 4.148-1.003 5.816.716 1.613 2.848 1.865 4.287 2.463a110.872 110.872 0 0 1 23.238 13.131c4.217 3.11 8.804 5.68 12.611 9.359 2.135 2.063 3.517 3.46 6.248 1.44a42.87 42.87 0 0 0 7.258-6.808c1.88-2.227 5.14-5.62 4.557-8.816" fill="#F8FAFB"/><path d="M556.75 413.981c-.186-1.023-.885-1.948-2.08-3.057-5.882-5.453-12.607-9.896-19.854-13.318-4.854-2.293-9.886-4.159-15.026-5.677-.782 6.831-4.582 12.578-9.796 17.022a110.645 110.645 0 0 1 16.082 9.856c4.218 3.11 8.805 5.68 12.612 9.358 2.134 2.063 3.516 3.46 6.248 1.44a42.905 42.905 0 0 0 7.257-6.808c1.88-2.227 5.14-5.62 4.558-8.816" fill="#FFDC79"/><path d="M556.75 413.981c-.186-1.023-.885-1.948-2.08-3.057-5.882-5.453-12.607-9.896-19.854-13.318a94.569 94.569 0 0 0-1.772-.815 38.876 38.876 0 0 1-11.746 18.688 110.119 110.119 0 0 1 4.778 3.328c4.218 3.11 8.805 5.68 12.612 9.358 2.134 2.063 3.516 3.46 6.248 1.44a42.905 42.905 0 0 0 7.257-6.808c1.88-2.227 5.14-5.62 4.558-8.816" fill="#FFD341"/><path d="M556.75 413.981c-.186-1.023-.885-1.948-2.08-3.057a75.663 75.663 0 0 0-8.831-7.023c-3.141 7.395-8.055 13.696-14.125 18.806 2.435 1.664 4.829 3.385 6.974 5.458 2.134 2.063 3.516 3.46 6.248 1.44a42.905 42.905 0 0 0 7.257-6.808c1.88-2.227 5.14-5.62 4.558-8.816" fill="#FFB300"/><path d="M511.132 409.295c6.805 3.606 14.496 8.115 17.085 10.479 0 0 10.727 8.387 11.897 9.557s4.29 1.95 6.144-.781" stroke="#FFD341" stroke-width="1.5" stroke-linecap="round"/><path d="M498.937 398.752s-2.905 4.745 2.254 6.228c5.16 1.482 8.72 3.499 8.72 3.499" stroke="#BAC8D3" stroke-width="1.5" stroke-linecap="round"/><path d="M535.06 619.733c-2.89-.96-6.19.79-8.614 2.39-1.63 1.076-3.203 2.224-4.957 3.08-1.547.753-3.377 1.795-5.11 1.68-1.246-.082-1.302 1.905-.059 1.987.023.001.048.001.071.003 1.577.731 3.05 1.165 4.815 1.253 1.784.088 3.57.2 5.358.228a25.405 25.405 0 0 0 5.126-.433c1.79-.336 3.026-1.116 4.107-2.65 1.583-2.248 2.492-6.464-.737-7.538" fill="#FF8678"/><path d="M515.802 628.684a8.9 8.9 0 0 0 2.855-.363c1.998-.605 3.659-1.921 5.26-3.205 2.017-1.618 4.035-2.986 6.564-3.66a14.996 14.996 0 0 1 3.456-.486c.776-.02 1.736.053 2.08-.745a3.393 3.393 0 0 0-.957-.491c-2.89-.961-6.19.789-8.613 2.389-1.63 1.077-3.204 2.225-4.959 3.08-1.546.753-3.376 1.795-5.11 1.68-1.035-.067-1.248 1.292-.577 1.8M573.118 588.959c1.08-1.954 2.159-3.917 2.965-6.004.723-1.872 1.43-4.204 1.086-6.229-.342-1.996-2.37-3.157-4.095-1.861-1.767 1.327-3.122 3.389-4.172 5.3-2.216 4.038-3.441 8.529-5.394 12.69a62.792 62.792 0 0 1-6.465 10.811c-5.422 7.279-12.553 13.275-20.848 16.998-.726.401-.99 1.046-.928 1.704.23.415.526.779.982.986.438.199.923.233 1.405.213a37.33 37.33 0 0 0 2.349-.635c.112-.035.222-.074.332-.113.62-.299 1.235-.608 1.848-.922 1.28-.707 2.53-1.481 3.753-2.262a73.28 73.28 0 0 0 10.656-8.28 72.898 72.898 0 0 0 8.85-9.997c2.882-3.923 5.322-8.144 7.676-12.399" fill="#FF5151"/><path d="M548.62 612.72c-3.737 3.215-7.908 5.918-12.425 7.944-.726.402-.99 1.046-.928 1.704.23.415.526.78.982.986.438.199.923.233 1.405.214a38.03 38.03 0 0 0 2.349-.636 9.24 9.24 0 0 0 .332-.112c.62-.3 1.235-.61 1.849-.922 1.28-.707 2.529-1.482 3.752-2.263a73.92 73.92 0 0 0 5.82-4.134c-1.402-.603-2.571-1.494-3.135-2.781" fill="#FFC9AF"/><path d="M542.052 618.204c1.266-.736 2.47-1.565 3.72-2.326 1.135-.69 2.415-1.364 3.283-2.4a4.23 4.23 0 0 1-.434-.758c-3.738 3.214-7.91 5.918-12.425 7.944a1.819 1.819 0 0 0-.728.697 45.011 45.011 0 0 0 6.584-3.157M550.26 614.668c-.873.968-1.974 1.681-3.09 2.361-1.357.828-2.675 1.719-4.043 2.527a46.585 46.585 0 0 1-7.332 3.501c.131.118.28.218.453.297.44.199.923.233 1.406.213a37.116 37.116 0 0 0 2.348-.635c.112-.035.223-.074.332-.113.62-.299 1.236-.608 1.85-.922 1.28-.707 2.528-1.481 3.752-2.262a73.902 73.902 0 0 0 5.82-4.134 7.83 7.83 0 0 1-1.496-.833" fill="#FFA78F"/><path d="M533 627.302s-10.46 3.93-16.225.815M526.558 625.68s-3.693 3.836-7.9 2.64" stroke="#FF5151" stroke-width="2" stroke-linecap="round"/><path d="M216.322 782.844c.476-.721.163-1.495-.429-1.996-5.156-4.368-7.285-11.383-9.323-17.574-2.225-6.76-4.208-13.9-3.563-21.084.33-3.692 1.494-7.2 3.327-10.413 1.752-3.073 4.335-5.692 5.84-8.888.64-1.36 1.034-2.875.721-4.38-.321-1.552-1.356-2.638-2.462-3.69-1.158-1.103-1.774-2.102-1.63-3.741.139-1.558.808-3.09 1.432-4.506a34.82 34.82 0 0 1 6.972-10.263c2.919-2.978 6.485-5.23 9.305-8.308.69-.754.406-1.747-.199-2.252-.099-.425-.387-.808-.91-1-9.225-3.375-18.732-5.841-28.423-7.44a1.372 1.372 0 0 0-.542.012c-.453-.034-.924.134-1.265.598a94.01 94.01 0 0 0-11.136 19.757c-2.409 5.82-5.118 12.815-2.917 19.112.518 1.482 1.427 2.848 1.773 4.383.367 1.624-.167 3.26-.998 4.654-1.799 3.019-4.805 5.03-7.029 7.702-4.815 5.782-2.855 12.997-.614 19.432 2.317 6.655 5.819 13.335 12.258 16.594.088.239.247.465.49.654a84.685 84.685 0 0 0 27.392 14.166c1.074.325 1.815-.55 1.842-1.413.031-.038.062-.076.088-.116" fill="#FFEEB5"/><path d="M215.893 780.848c-1.29-1.094-2.392-2.353-3.349-3.723-11.975-3.533-23.655-9.97-30.87-20.356-1.894-2.728-3.509-5.65-4.643-8.775-.893-2.456-1.579-5.09-1.062-7.703.86-4.337 4.751-7.211 8.477-9.073 4.33-2.163 9.073-3.438 13.757-4.57 1.822-.441 3.652-.85 5.464-1.33 2.435-.645 5.167-1.021 7.3-2.452 2.185-1.466 2.285-4.145 1.074-6.27-.452-.645-1.019-1.217-1.608-1.777a8.067 8.067 0 0 1-.77-.828c-1.865-1.393-4.208-2.197-6.43-2.701-5.71-1.296-13.472-.28-17.225-5.756-1.776-2.593-2.079-5.61-1.643-8.631-.11.257-.22.514-.328.773-2.41 5.82-5.119 12.816-2.917 19.112.518 1.482 1.426 2.848 1.773 4.383.367 1.624-.167 3.26-.998 4.655-1.799 3.018-4.806 5.029-7.029 7.7-4.815 5.783-2.855 12.998-.615 19.433 2.318 6.655 5.82 13.335 12.258 16.594.09.239.247.465.49.654a84.69 84.69 0 0 0 27.393 14.166c1.073.326 1.814-.55 1.842-1.413.031-.038.061-.076.088-.116.475-.721.163-1.495-.429-1.996" fill="#FFDC79"/><path d="M205.431 685.135c4.555 1.019 9.126 2.024 13.647 3.198 1.431-1.418 2.853-2.846 4.193-4.344a156.482 156.482 0 0 0-21.52-5.817 1.262 1.262 0 0 1-.26.382 68.007 68.007 0 0 0-4.629 5.222c2.882-.048 5.95.774 8.57 1.359M196.24 699.913l.578.101a67.618 67.618 0 0 1 9.437 2.341c.143.047.302.094.442.035.098-.04.168-.129.233-.213.385-.494.761-.995 1.17-1.469.408-.473 1.145-.97 1.439-1.505l.047-.076c1.991-3.126 4.5-5.81 7.101-8.419-1.144-.26-2.282-.563-3.422-.814-2.529-.555-5.083-.982-7.645-1.356-3.724-.545-7.463-1.054-11.209-1.458-2.71 3.938-4.898 8.207-6.295 12.804.076-.25 1.641-.383 1.888-.41a14.423 14.423 0 0 1 2.219-.067c1.337.055 2.69.277 4.017.506M187.758 716.778c-.056-.29 7.712-.748 8.335-.786l5.23-.32 2.542-.156c.682-.042 1.892.236 1.467-.699-1.392-3.063-1.676-6.118-.321-9.268.127-.295.263-.587.407-.875-.162.324-2.3-.25-2.571-.293a51.772 51.772 0 0 0-3.658-.444c-2.577-.218-5.122-.058-7.695-.117-.326-.007-4.312-.228-4.303-.27a38.33 38.33 0 0 0-.49 3.034c.01.08.015.163.01.252-.168 2.946.3 5.815.816 8.706.072.404.15.817.23 1.236M190.193 740.413a42.304 42.304 0 0 0 5.02-.9c1.206-.297 2.088-.878 2.295-2.172.262-1.627.792-3.216 1.707-4.743-2.932.094-5.885-.023-8.815-.052-1.85-.019-3.699-.04-5.549-.046h-.786c-.795.013-1.59.037-2.384.066-.515.634-1.042 1.266-1.564 1.91-1.63 2.01-2.787 4.102-3.265 6.517.074-.343 4.856-.127 5.316-.13 2.692-.022 5.37-.129 8.025-.45M186.162 752.157c1.939-.306 10.649-1.769 10.72-1.474-.562-2.415-.888-4.925-.751-7.406-6.513.135-13.022.424-19.524.83-.575.035 1.417 7.962 1.645 8.702.033.107.073.223.169.281.304.18 1.129-.079 1.448-.118a355.386 355.386 0 0 0 5.976-.767c.062-.008.17-.025.317-.048M211.142 781.137c-.374-.481-.746-.971-1.117-1.464-4.688-.967-9.373-2.05-13.99-3.344a84.948 84.948 0 0 0 18.262 8.015 90.558 90.558 0 0 1-2.57-2.801 1.07 1.07 0 0 1-.585-.406M207.906 776.777a48.837 48.837 0 0 1-1.568-2.304 32.268 32.268 0 0 1-.326-.523 70.607 70.607 0 0 1-3.433-5.899c-3.522.241-6.904-.5-10.283-1.313-2.47-.052-4.931-.19-7.367-.578a57.995 57.995 0 0 0 3.873 5.383c6.218 2.171 12.647 3.832 19.104 5.234M182.015 761.182c.272.509.553 1.017.838 1.522.16.283 1.337.209 1.602.212 1.208.015 2.415.339 3.627.44a132.457 132.457 0 0 0 12.573.444 35.712 35.712 0 0 1-1.625-4.476c-.463-1.58-.56-3.33-1.077-4.871l-.045-.143c-4.064.115-7.994 1.016-12.03 1.398-1.357.13-2.713.162-4.068.143-.752.102-1.505.193-2.259.277a67.058 67.058 0 0 0 2.464 5.054M184.87 729.06c1.813.122 3.624.262 5.438.335 3.298.133 6.636-.146 9.857.696.21.019.422.034.633.055a1.4 1.4 0 0 1 .199.036c1.342-1.584 2.844-3.04 4.114-4.676.343-.623.704-1.24 1.084-1.854.266-.432.548-.867.813-1.315.315-.867.424-1.749.26-2.712-6.243 1.345-12.627.552-18.964.404.138 1.158.188 2.312.04 3.413-.321 2.409-1.702 4.178-3.473 5.619" fill="#FFBE00"/><path d="M520.072 624.566a2.21 2.21 0 0 0-.615-.066h-.066a6.922 6.922 0 0 0-.039-.457c-.041-.324-.114-.869-.62-.972-.074-.015-.28.6-.296.662a2.684 2.684 0 0 0-.066.673v.12c-.115.011-.23.026-.345.05-.292.058-.819.094-.914.605-.014.074.547.281.604.296.219.061.449.068.676.068.012.144.029.287.055.428.059.321.094.898.605 1.002.075.015.281-.599.296-.66.065-.26.071-.53.07-.798.124-.01.249-.018.372-.035.295-.04.793-.114.887-.62.014-.074-.548-.28-.604-.296" fill="#B7ECFF"/><path d="M569.197 634.172a2.21 2.21 0 0 0-.615-.066h-.066a6.952 6.952 0 0 0-.039-.458c-.041-.323-.114-.868-.62-.971-.074-.015-.28.599-.296.662a2.684 2.684 0 0 0-.066.673v.119c-.115.012-.23.026-.344.05-.293.059-.82.095-.915.606-.014.074.547.28.604.295.219.062.449.069.677.069.011.143.028.286.054.428.06.32.095.898.605 1 .075.017.281-.597.296-.66.066-.26.071-.53.07-.797.124-.01.249-.017.373-.035.295-.041.792-.113.886-.62.014-.074-.548-.28-.604-.295" fill="#00B3FF"/><path d="M558.36 479.482c-.189.702-1.19.803-1.783.86-.724.07-1.45.091-2.177.088-.658-.002-1.348.03-1.997-.095-.113-.02-1.24-.307-1.213-.41.191-.709 1.251-.758 1.84-.84.952-.134 1.92-.1 2.878-.105.412-.003.831.015 1.236.092.114.021 1.243.306 1.216.41" fill="#B4B4FF"/><path d="M554.552 476.121c.702.19.803 1.19.859 1.783.07.723.09 1.45.089 2.177-.002.658.029 1.347-.095 1.997-.022.113-.307 1.241-.41 1.213-.71-.19-.758-1.25-.84-1.84-.134-.952-.1-1.92-.106-2.878a6.49 6.49 0 0 1 .093-1.237c.02-.113.306-1.243.41-1.215" fill="#B4B4FF"/><path d="M503.806 664.727c-.894.296-.513 1.756.394 1.68a.878.878 0 0 0 .51-.225c.034-.017.07-.034.101-.06.725-.56-.329-1.62-1.005-1.395M565.393 570.153c-1.12.468-.799 2.303.315 2.117.234-.039.462-.163.646-.339.044-.025.088-.05.128-.085.941-.79-.242-2.047-1.089-1.693" fill="#71CEFC"/><path d="M597.17 617.312c-1.12.467-.798 2.303.316 2.116.234-.038.46-.163.646-.337a.796.796 0 0 0 .128-.087c.94-.79-.243-2.047-1.09-1.692" fill="#8181F5"/><path d="M258.37 892.5c40.378-23.295 89.103-31.258 133-27 49.437 4.796 93.479 8.361 142.087 17.64 75.993 14.506 161.9 2.023 209.762-65.04 22.95-32.162 43.149-104.926-4.85-125.6-66.271-28.544-125.891 35.472-170 74-38.073 33.256-83.621 54.479-133.112 50.354-57.673-4.804-113.885-21.844-172.16-25.887-19.211-1.332-80.727-2.467-90.727 50.533-11.52 61.052 60 66 86 51" fill="#FB5252"/></g><g transform="translate(14 765.5)"><mask id="o" fill="#fff"><use xlink:href="#n"/></mask><path d="M.622 24.483c-.87 10.578 6.555 19.321 15.36 24.15 5.179 2.84 11.046 4.717 16.939 4.313 7.069-.485 13.759-4.356 18.003-10.031 4.244-5.673 6.066-13.024 5.338-20.072C54.656 7.272 42.427.026 29.833.025 16.095.024 1.923 8.645.622 24.483" mask="url(#o)"/></g></g></svg>